<?xml version="1.0" encoding="utf-8"?>
<!-- Generator: Adobe Illustrator 20.0.0, SVG Export Plug-In . SVG Version: 6.00 Build 0)  -->
<svg version="1.1" id="Layer_1" xmlns="http://www.w3.org/2000/svg" xmlns:xlink="http://www.w3.org/1999/xlink" x="0px" y="0px"
	 viewBox="0 0 64 64" style="enable-background:new 0 0 64 64;" xml:space="preserve">
<style type="text/css">
	.st0{fill:#F4F4F4;}
	.st1{fill:#F4EFDC;}
	.st2{fill:#DA9D3A;}
	.st3{fill:#CEC9AE;}
	.st4{fill:#D1BF86;}
	.st5{fill:#E6AE3E;}
</style>
<title>Artboard 42</title>
<circle class="st0" cx="31" cy="32" r="32"/>
<path class="st1" d="M14.7,31.6c0.1-0.4,0.4-0.6,0.8-0.6H49v-6.2L41.4,17H13.6v17.7L14.7,31.6z"/>
<path class="st2" d="M51.2,25.9H49v5.3h3.1v-4.3C52.1,26.4,51.7,26,51.2,25.9z"/>
<path class="st2" d="M13.6,23.4h-3.3c-0.5,0-0.9,0.4-0.9,0.9c0,0,0,0,0,0v22.1l0,0l4.2-11L13.6,23.4z"/>
<path class="st3" d="M37.2,25.3H20c-1,0-1.7-0.2-1.7-0.5s0.8-0.5,1.7-0.5h17.2c1,0,1.7,0.2,1.7,0.5S38.2,25.3,37.2,25.3z"/>
<path class="st3" d="M37.2,21.6H20c-1,0-1.7-0.2-1.7-0.5s0.8-0.5,1.7-0.5h17.2c1,0,1.7,0.2,1.7,0.5S38.2,21.6,37.2,21.6z"/>
<path class="st3" d="M38.1,28.9H19c-0.4,0-0.8-0.2-0.8-0.5s0.4-0.5,0.8-0.5h19.1c0.4,0,0.8,0.2,0.8,0.5S38.6,28.9,38.1,28.9z"/>
<polygon class="st4" points="41.3,24.8 49,24.8 41.3,17 "/>
<path class="st5" d="M46.6,47H10.2c-0.4,0-0.8-0.4-0.8-0.8c0-0.1,0-0.1,0-0.2l5.3-14.4c0.1-0.4,0.4-0.6,0.8-0.6h36.4
	c0.5,0,0.8,0.5,0.8,1l-5.3,14.4C47.3,46.8,47,47,46.6,47z"/>
</svg>
