<svg id="Layer_1" data-name="Layer 1" xmlns="http://www.w3.org/2000/svg" viewBox="0 0 64 64"><defs><style>.cls-1{fill:#f4f4f4;}.cls-2{fill:#aec1cf;}.cls-3{fill:#5b7989;}.cls-4{fill:none;}.cls-5{fill:#8fa6b4;}.cls-6{fill:#e6ae3e;}.cls-7{fill:#da9d3a;}.cls-8{fill:#cc973a;}</style></defs><title>Interesse vrijwilliger spel en sport-grey</title><circle class="cls-1" cx="32" cy="32" r="32"/><rect class="cls-2" x="12.6" y="13.9" width="38.8" height="4.4"/><rect class="cls-3" x="12.6" y="10" width="38.8" height="3.9"/><rect class="cls-4" x="12.6" y="9.9" width="38.8" height="44.1"/><path class="cls-5" d="M32.1,37.5,12.6,10v8.6L32.1,44.8Z"/><path class="cls-3" d="M12.6,18.6v1.2a4.76,4.76,0,0,0,.7,2.3L32,48.6V44.8Z"/><path class="cls-5" d="M51.4,10,31.9,37.5v7.1L51.3,18.4V10Z"/><path class="cls-3" d="M31.9,44.6v4L50.6,22.1a3.89,3.89,0,0,0,.7-2.3V18.4Z"/><path class="cls-6" d="M40.4,36.9a10.56,10.56,0,1,1-14.8-2,10.45,10.45,0,0,1,14.8,2Z"/><path class="cls-7" d="M25.6,34.9a10.63,10.63,0,0,0-2,14.8h0A11,11,0,0,0,32,53.9V32.7A10.55,10.55,0,0,0,25.6,34.9Z"/><rect class="cls-4" x="12.6" y="9.9" width="38.8" height="44.1"/><path class="cls-8" d="M39.1,43.3A7.1,7.1,0,1,1,32,36.2a7.13,7.13,0,0,1,7.1,7.1Z"/></svg>