<?xml version="1.0" encoding="utf-8"?>
<!-- Generator: Adobe Illustrator 20.0.0, SVG Export Plug-In . SVG Version: 6.00 Build 0)  -->
<svg version="1.1" id="Layer_1" xmlns="http://www.w3.org/2000/svg" xmlns:xlink="http://www.w3.org/1999/xlink" x="0px" y="0px"
	 viewBox="0 0 64 64" style="enable-background:new 0 0 64 64;" xml:space="preserve">
<style type="text/css">
	.st0{fill:#F4F4F4;}
	.st1{fill:#D94B2A;}
	.st2{fill:#BF5347;}
	.st3{fill:#CE3D2E;}
	.st4{fill:#FFF8E6;}
	.st5{fill:#E6DBC3;}
	.st6{fill:#F2E7CE;}
</style>
<title>Artboard 1 copy 27</title>
<circle class="st0" cx="32" cy="32" r="32"/>
<path class="st1" d="M51.8,17.6H12.2c-0.5,0-0.9,0.4-0.9,0.9v27.3c0,0.5,0.4,0.9,0.9,0.9h16.5c0,1,1.5,1.9,3.3,1.9s3.3-0.8,3.3-1.9
	h16.5c0.5,0,0.9-0.4,0.9-0.9V18.5C52.7,18,52.3,17.6,51.8,17.6z"/>
<rect x="32.9" y="17.6" class="st2" width="18.9" height="27.8"/>
<path class="st3" d="M51.8,45.9H35.3c0,1-1.5,1.9-3.3,1.9s-3.3-0.8-3.3-1.9H12.2c-0.5,0-0.9-0.4-0.9-0.9v0.9c0,0.5,0.4,0.9,0.9,0.9
	h16.5c0,1,1.5,1.9,3.3,1.9s3.3-0.8,3.3-1.9h16.5c0.5,0,0.9-0.4,0.9-0.9v-0.9C52.7,45.5,52.3,45.9,51.8,45.9z"/>
<path class="st4" d="M24,15.2c-3.7,0-7.3,0.5-10.8,1.4v28.3H32V16.7C31.5,16.2,29.2,15.2,24,15.2z"/>
<path class="st5" d="M32,44.9c0-1.3-2.8-2.4-8-2.4s-9.9,1.4-10.9,2.4H32z"/>
<path class="st4" d="M40,15.2c3.7,0,7.3,0.5,10.8,1.4v28.3H32V16.7C32.5,16.2,34.8,15.2,40,15.2z"/>
<path class="st5" d="M32,44.9c0-1.3,2.8-2.4,8-2.4s9.9,1.4,10.8,2.4H32z"/>
<path class="st6" d="M32,42.1V16.7c-1.1-0.7-2.3-1-3.5-1.1L32,42.1z"/>
<rect x="13.6" y="44.9" class="st2" width="19.3" height="0.5"/>
<path class="st6" d="M49,21.4H33.9v-3.3c5-0.9,10.1-0.9,15.1,0L49,21.4z"/>
<rect x="36.2" y="23.7" class="st6" width="12.7" height="0.9"/>
<rect x="33.9" y="25.6" class="st6" width="15.1" height="0.9"/>
<rect x="33.9" y="27.5" class="st6" width="15.1" height="0.9"/>
<rect x="33.9" y="29.4" class="st6" width="15.1" height="0.9"/>
<rect x="33.9" y="31.3" class="st6" width="15.1" height="0.9"/>
<rect x="33.9" y="33.2" class="st6" width="15.1" height="0.9"/>
<rect x="33.9" y="35" class="st6" width="15.1" height="0.9"/>
<rect x="33.9" y="36.9" class="st6" width="15.1" height="0.9"/>
<rect x="33.9" y="38.8" class="st6" width="12.7" height="0.9"/>
<rect x="17.9" y="18.5" class="st6" width="12.7" height="0.9"/>
<rect x="15.5" y="20.4" class="st6" width="15.1" height="0.9"/>
<rect x="15.5" y="22.3" class="st6" width="15.1" height="0.9"/>
<rect x="15.5" y="24.2" class="st6" width="15.1" height="0.9"/>
<rect x="15.5" y="26.1" class="st6" width="15.1" height="0.9"/>
<rect x="15.5" y="28" class="st6" width="15.1" height="0.9"/>
<rect x="15.5" y="29.9" class="st6" width="15.1" height="0.9"/>
<rect x="15.5" y="31.7" class="st6" width="15.1" height="0.9"/>
<rect x="15.5" y="33.6" class="st6" width="12.7" height="0.9"/>
</svg>
