<?xml version="1.0" encoding="utf-8"?>
<!-- Generator: Adobe Illustrator 20.0.0, SVG Export Plug-In . SVG Version: 6.00 Build 0)  -->
<svg version="1.1" id="Layer_1" xmlns="http://www.w3.org/2000/svg" xmlns:xlink="http://www.w3.org/1999/xlink" x="0px" y="0px"
	 viewBox="0 0 64 64" style="enable-background:new 0 0 64 64;" xml:space="preserve">
<style type="text/css">
	.st0{fill:#F4F4F4;}
	.st1{fill:#C13038;}
	.st2{fill:#E73A3E;}
	.st3{fill:#B3B3B3;}
	.st4{fill:#E6E6E6;}
	.st5{fill:#77C5D6;}
	.st6{fill:#D8888D;}
	.st7{fill:none;stroke:#77C5D6;stroke-width:0.5;stroke-miterlimit:10;}
	.st8{fill:#1C8295;}
	.st9{fill:#CCCCCC;}
</style>
<title>Artboard 44 copy</title>
<circle class="st0" cx="32" cy="32" r="32"/>
<path class="st1" d="M12.1,17.1h39.8c1,0,1.8,0.8,1.8,1.8v28.3c0,1-0.8,1.8-1.8,1.8H12.1c-1,0-1.8-0.8-1.8-1.8V18.8
	C10.4,17.9,11.1,17.1,12.1,17.1z"/>
<path class="st2" d="M12.1,17.9h39.8c1,0,1.8,0.8,1.8,1.8v27.5c0,1-0.8,1.8-1.8,1.8H12.1c-1,0-1.8-0.8-1.8-1.8V19.6
	C10.4,18.7,11.1,17.9,12.1,17.9z"/>
<path class="st3" d="M10.4,24h43.3l0,0v23.1c0,1-0.8,1.8-1.8,1.8H12.1c-1,0-1.8-0.8-1.8-1.8V24L10.4,24z"/>
<path class="st4" d="M10.3,24h43.4l0,0v23.4c0,1-0.8,1.8-1.8,1.8l0,0H12.1c-1,0-1.8-0.8-1.8-1.8l0,0V24L10.3,24z"/>
<rect x="15.7" y="26.3" class="st5" width="2.6" height="2.6"/>
<rect x="20.8" y="26.3" class="st5" width="2.6" height="2.6"/>
<rect x="25.9" y="26.3" class="st5" width="2.6" height="2.6"/>
<rect x="31" y="26.3" class="st5" width="2.6" height="2.6"/>
<rect x="36.1" y="26.3" class="st5" width="2.6" height="2.6"/>
<rect x="41.2" y="26.3" class="st2" width="2.6" height="2.6"/>
<rect x="46.3" y="26.3" class="st2" width="2.6" height="2.6"/>
<rect x="15.7" y="30.6" class="st5" width="2.6" height="2.6"/>
<rect x="20.8" y="30.6" class="st5" width="2.6" height="2.6"/>
<rect x="25.9" y="30.6" class="st5" width="2.6" height="2.6"/>
<rect x="31" y="30.6" class="st5" width="2.6" height="2.6"/>
<rect x="36.1" y="30.6" class="st5" width="2.6" height="2.6"/>
<rect x="41.2" y="30.6" class="st2" width="2.6" height="2.6"/>
<rect x="46.3" y="30.6" class="st2" width="2.6" height="2.6"/>
<rect x="15.7" y="35.2" class="st5" width="2.6" height="2.6"/>
<rect x="20.8" y="35.2" class="st5" width="2.6" height="2.6"/>
<rect x="25.9" y="35.2" class="st5" width="2.6" height="2.6"/>
<rect x="31" y="35.2" class="st5" width="2.6" height="2.6"/>
<rect x="36.1" y="35.2" class="st5" width="2.6" height="2.6"/>
<rect x="41.2" y="35.2" class="st2" width="2.6" height="2.6"/>
<rect x="46.3" y="35.2" class="st2" width="2.6" height="2.6"/>
<rect x="15.7" y="39.7" class="st5" width="2.6" height="2.6"/>
<rect x="20.8" y="39.7" class="st5" width="2.6" height="2.6"/>
<rect x="25.9" y="39.7" class="st5" width="2.6" height="2.6"/>
<rect x="31" y="39.7" class="st5" width="2.6" height="2.6"/>
<rect x="36.1" y="39.7" class="st5" width="2.6" height="2.6"/>
<rect x="41.2" y="39.7" class="st2" width="2.6" height="2.6"/>
<rect x="46.3" y="39.7" class="st2" width="2.6" height="2.6"/>
<rect x="15.7" y="44.1" class="st5" width="2.6" height="2.6"/>
<rect x="20.8" y="44.1" class="st5" width="2.6" height="2.6"/>
<rect x="25.9" y="44.1" class="st5" width="2.6" height="2.6"/>
<rect x="31" y="44.1" class="st5" width="2.6" height="2.6"/>
<rect x="36.1" y="44.1" class="st5" width="2.6" height="2.6"/>
<rect x="41.2" y="44.1" class="st6" width="2.6" height="2.6"/>
<rect x="46.3" y="44.1" class="st6" width="2.6" height="2.6"/>
<line class="st7" x1="24.4" y1="21.7" x2="39.3" y2="21.7"/>
<circle class="st8" cx="19.8" cy="19.7" r="1.3"/>
<circle class="st5" cx="19.8" cy="19.7" r="0.9"/>
<path class="st9" d="M19.7,14.8L19.7,14.8c0.3,0,0.6,0.3,0.6,0.6v4.1c0,0.3-0.3,0.6-0.6,0.6h0c-0.3,0-0.6-0.3-0.6-0.6v-4.1
	C19.1,15.1,19.4,14.8,19.7,14.8z"/>
<circle class="st8" cx="45" cy="19.7" r="1.3"/>
<circle class="st5" cx="45" cy="19.7" r="0.9"/>
<path class="st9" d="M45,14.8L45,14.8c0.3,0,0.6,0.3,0.6,0.6v4.1c0,0.3-0.3,0.6-0.6,0.6h0c-0.3,0-0.6-0.3-0.6-0.6v-4.1
	C44.4,15.1,44.7,14.8,45,14.8z"/>
</svg>
