<?xml version="1.0" encoding="utf-8"?>
<!-- Generator: Adobe Illustrator 20.0.0, SVG Export Plug-In . SVG Version: 6.00 Build 0)  -->
<svg version="1.1" id="Layer_1" xmlns="http://www.w3.org/2000/svg" xmlns:xlink="http://www.w3.org/1999/xlink" x="0px" y="0px"
	 viewBox="0 0 64 64" style="enable-background:new 0 0 64 64;" xml:space="preserve">
<style type="text/css">
	.st0{fill:#F4F4F4;}
	.st1{fill:#83CEE9;}
	.st2{fill:#BAE1F0;}
	.st3{fill:#65AA78;}
	.st4{fill:#5EB67D;}
	.st5{fill:#FFFFFF;}
</style>
<title>Artboard 1 copy 23</title>
<circle class="st0" cx="32.1" cy="32" r="32"/>
<path class="st1" d="M12.1,49.6l8.3-2.2c1.5,0.6,3.2,0.9,4.8,0.9c6,0,12.5-4.8,12.5-11.1s-5.6-11.5-12.5-11.5s-12.5,5.2-12.5,11.5
	c0,1.9,0.5,3.8,1.5,5.5L12.1,49.6z"/>
<path class="st2" d="M12.1,49.6l8.3-2.9c1.5,0.6,3.2,0.9,4.9,0.9c6.9,0,12.5-5.2,12.5-11.5s-5.6-11.5-12.5-11.5
	c-6.5,0-12,5-12.5,11.5c-0.2,2.2,0.3,4.4,1.3,6.3L12.1,49.6z"/>
<path class="st3" d="M51.6,35l-8.3-2.2c-1.5,0.6-3.2,0.9-4.8,0.9c-6,0-12.5-4.7-12.5-11.1s5.6-11.5,12.5-11.5s12.4,5.2,12.4,11.5
	c0,1.9-0.5,3.8-1.5,5.5L51.6,35z"/>
<path class="st4" d="M51.6,35l-8.3-2.9c-1.5,0.6-3.2,0.9-4.8,0.9C31.5,33,26,27.8,26,21.5S31.5,9.9,38.5,9.9c6.5,0,12,5,12.5,11.5
	c0.2,2.2-0.3,4.4-1.3,6.3L51.6,35z"/>
<circle class="st5" cx="20.2" cy="36.4" r="1.4"/>
<circle class="st5" cx="25.2" cy="36.4" r="1.4"/>
<circle class="st5" cx="30.2" cy="36.4" r="1.4"/>
<circle class="st5" cx="33.8" cy="21.4" r="1.4"/>
<circle class="st5" cx="38.8" cy="21.4" r="1.4"/>
<circle class="st5" cx="43.8" cy="21.4" r="1.4"/>
</svg>
