<?xml version="1.0" encoding="utf-8"?>
<!-- Generator: Adobe Illustrator 20.0.0, SVG Export Plug-In . SVG Version: 6.00 Build 0)  -->
<svg version="1.1" id="Layer_1" xmlns="http://www.w3.org/2000/svg" xmlns:xlink="http://www.w3.org/1999/xlink" x="0px" y="0px"
	 viewBox="0 0 64 64" style="enable-background:new 0 0 64 64;" xml:space="preserve">
<style type="text/css">
	.st0{fill:#F4F4F4;}
	.st1{fill:#F1EADE;}
	.st2{fill:#E6B6AE;}
	.st3{fill:#509866;}
	.st4{fill:#DFA39A;}
	.st5{fill:#BB8449;}
	.st6{opacity:0.4;fill:#D0938A;enable-background:new    ;}
	.st7{fill:#D7994C;}
	.st8{opacity:0.6;fill:#DFA39A;enable-background:new    ;}
	.st9{opacity:0.4;fill:#FFFFFF;enable-background:new    ;}
	.st10{fill:#5EB67D;}
	.st11{fill:none;}
	.st12{fill:#A05D5C;}
	.st13{fill:#70B1C3;}
	.st14{fill:#83CEE9;}
	.st15{fill:#BB9B86;}
	.st16{opacity:0.4;fill:#A1806B;enable-background:new    ;}
	.st17{fill:#252525;}
	.st18{fill:#A1806B;}
	.st19{fill:#C33A22;}
	.st20{fill:#D94A2A;}
	.st21{fill:#F2C8BE;}
	.st22{opacity:0.4;fill:#E0A299;enable-background:new    ;}
	.st23{fill:#6C412A;}
	.st24{fill:#772D22;}
</style>
<title>Artboard 1 copy 8</title>
<circle class="st0" cx="32" cy="32" r="32"/>
<ellipse class="st1" cx="32" cy="32" rx="24.1" ry="23.3"/>
<path class="st2" d="M25.7,54.5c0.1-3-0.2-6-0.9-8.9c0,0,0,0,0-0.1c0-0.1,0-0.1-0.1-0.2s0,0,0,0s-0.1-0.3-0.1-0.4
	c-0.2-0.6-0.5-1.2-0.8-1.7c-0.1-0.2-0.3-0.4-0.4-0.6l0-0.1c-0.1-0.1-0.2-0.2-0.3-0.3l0,0l0,0c-0.1-0.1-0.3-0.2-0.4-0.3
	c-0.1,0-0.1-0.1-0.2-0.1l0,0l-0.3-0.1c-0.1,0-0.2,0-0.3-0.1h-0.3h-0.1c0-0.8,0-1.3,0-1.6c0-0.1,0-0.1,0-0.2c0,0,0-0.1,0-0.1
	c0,0,0-0.1,0-0.1s0,0,0,0l0,0c0.3,0,0.5,0,0.8,0c1.2,0.3,2.2,1,2.7,2.1l0,0.1c0.4,0.8,0.8,1.6,1.1,2.4c0,0,0,0.1,0,0.1
	c0,0.1,0.1,0.3,0.1,0.4s0,0.1,0,0.1l0.1,0.2l0,0c0.7,3.2,1,6.5,0.9,9.8C26.6,54.8,26.1,54.6,25.7,54.5z"/>
<path class="st3" d="M21.4,41.7c1.8,0,2.5,1.5,3.4,3.8l1.3-1.2c-1.6-5.3-4.7-4.7-4.7-4.7C21.4,40.3,21.4,41,21.4,41.7z"/>
<path class="st2" d="M12.1,45.1l0.1-0.3c0.2-0.8,0.6-1.5,1.1-2.1l0,0l0.1-0.2l0.1-0.1l0,0c0.1-0.1,0.2-0.2,0.3-0.2
	c0.4-0.4,0.9-0.6,1.5-0.6h0.2c0-0.4,0-0.8,0-1c0-0.1,0-0.1,0-0.2s0-0.3,0-0.4V40c0-0.1,0-0.2,0-0.2s0-0.1,0-0.2l0,0
	c-0.2,0-0.4,0-0.5,0h-0.2l0,0c-0.9,0.2-2.5,0.9-3.6,4L12.1,45.1z"/>
<rect x="16.9" y="36.8" class="st4" width="2.9" height="3"/>
<path class="st5" d="M13.5,25L13.5,25c0.5,0,0.9,0.4,0.9,0.9v11.3c0,0.5-0.4,0.9-0.9,0.9h0h-0.8c-0.5,0-0.9-0.4-0.9-0.9l0,0V26.7
	C11.8,25.8,12.6,25,13.5,25C13.5,25,13.5,25,13.5,25z"/>
<path class="st5" d="M23.4,25L23.4,25c1,0,1.7,0.8,1.7,1.7v10.5c0,0.5-0.4,0.8-0.8,0.8l0,0h-0.9c-0.5,0-0.8-0.4-0.8-0.8l0,0V25.9
	C22.5,25.4,22.9,25,23.4,25C23.4,25,23.4,25,23.4,25z"/>
<ellipse transform="matrix(0.6 -0.8 0.8 0.6 -16.0408 32.0144)" class="st4" cx="24" cy="32" rx="0.7" ry="0.7"/>
<path class="st6" d="M19.8,38.3v0.9c-0.5,0.2-1,0.3-1.6,0.3c-0.4,0-0.9-0.1-1.3-0.2v-1L19.8,38.3z"/>
<path class="st2" d="M12.7,25H24l0,0v9.9c0,2.2-1.8,4-4,4h-3.2c-2.2,0-4-1.8-4-4L12.7,25L12.7,25L12.7,25z"/>
<ellipse transform="matrix(0.6 -0.8 0.8 0.6 -20.5592 22.9855)" class="st2" cx="12.7" cy="32.1" rx="0.7" ry="0.7"/>
<ellipse class="st7" cx="18.4" cy="25.9" rx="6.6" ry="2"/>
<ellipse class="st8" cx="18.4" cy="27.1" rx="5.6" ry="2.1"/>
<ellipse class="st7" cx="18.4" cy="26.9" rx="5.6" ry="2.1"/>
<path class="st9" d="M12.6,25.3c0,0,0.6-0.4,0.9-0.3c-0.1,0.4,2.2,3.5,3.6,3.8C14,28.5,12.7,27.2,12.6,25.3z"/>
<path class="st4" d="M23.7,34L23.7,34C23.7,34,23.7,34.1,23.7,34z"/>
<path class="st4" d="M22.4,35.6c-0.1,0.1-0.3,0.2-0.5,0.2l0.1-0.1L22.4,35.6z"/>
<path class="st10" d="M23.4,42l-0.1,0.5v0.1l-0.1,0.8l0,0l-0.5,4c0,0,0,0,0,0c-0.1,0.5-0.1,1-0.1,1.5c-0.1,1.5,0,3.1,0.3,4.6
	c-0.5-0.2-1-0.4-1.5-0.7s-0.7-0.3-1-0.5l0,0c-0.6-0.3-1.1-0.6-1.6-1s-1.1-0.8-1.7-1.2c-0.9-0.7-1.8-1.6-2.6-2.4c0-0.1,0-0.1,0-0.2
	c0-0.3-0.1-0.6-0.1-1l-0.4-3.2l0,0l-0.1-0.8l0,0L13.5,42c0-1.2,0.9-2.2,2.1-2.4l0,0c0.1,0,0.3,0,0.4,0h5c0.1,0,0.3,0,0.5,0
	C22.6,39.9,23.4,40.9,23.4,42z"/>
<path class="st4" d="M21.3,39.5c0,1.2-1.3,2.2-2.9,2.2s-2.9-1-2.9-2.2H21.3z"/>
<path class="st10" d="M13.9,47.4L13.9,47.4h0.2h0.1l1.7-0.4c0.7-0.2,1.5-0.4,2.3-0.4h0.4c0.5,0,1,0.1,1.5,0.2
	c0.3,0.1,0.5,0.1,0.8,0.2l1.6,0.5h0.1c0.3,0,0.7-0.2,0.9-0.5c0.3-0.4,0.4-0.8,0.4-1.2l0,0c0-0.4-0.1-0.8-0.3-1.1c0,0,0,0,0-0.1
	l-0.1-0.1l0,0c-0.1-0.3-0.2-0.6-0.3-0.9l0,0c-0.1-0.2-0.1-0.4-0.1-0.6c0-0.2,0-0.4-0.1-0.6l0,0l0,0c-0.1-1.5-1.2-1.6-1.2-1.6l-0.3,1
	l-0.6,2.2h-5.2l-0.6-2.2l0,0l-0.3-1.1c0,0-1.1,0.2-1.2,1.6l0,0l0,0c0,0.4-0.1,0.7-0.1,1.1l0,0c-0.1,0.4-0.2,0.8-0.4,1.2
	c0,0,0,0,0,0.1c-0.2,0.3-0.3,0.7-0.3,1.1l0,0c0,0.2,0,0.4,0.1,0.5L13.9,47.4z"/>
<path class="st10" d="M12.1,45.1L12.1,45.1l0.1-0.3c0.2-0.7,0.6-1.5,1-2.1l0,0l0.1-0.2l0.1-0.1l0,0c0.1-0.1,0.2-0.2,0.3-0.3
	c0.4-0.4,0.9-0.6,1.5-0.6h0.2c0-0.4,0-0.8,0-1c0-0.1,0-0.1,0-0.2s0-0.3,0-0.4V40c0-0.1,0-0.2,0-0.2s0-0.1,0-0.2l0,0
	c-0.2,0-0.4,0-0.5,0h-0.2l0,0c-0.9,0.1-2.6,0.9-3.7,3.9l0.1,0.1L12.1,45.1z"/>
<line class="st11" x1="27.4" y1="43.8" x2="26" y2="45.2"/>
<path class="st12" d="M24.2,45.1l1.9-1c0.1-0.1,0.3,0,0.3,0.1l0.1,0.2c0.1,0.1,0,0.3-0.1,0.3l-1.9,1c-0.1,0.1-0.3,0-0.3-0.1
	l-0.1-0.2C24.1,45.3,24.1,45.1,24.2,45.1z"/>
<path class="st13" d="M53.4,42.6l-0.1,0.2c-0.4,0.7-0.8,1.4-1.3,2.1c-0.7-0.4-1.6-0.6-2.4-0.6c-0.1-0.8,0.1-1.6,0.4-2.3
	c0.2,0,0.4,0,0.5,0c0.6,0,1.3,0.1,1.9,0.3l0,0C52.8,42.4,53.1,42.5,53.4,42.6z"/>
<path class="st14" d="M53.3,42.9c-0.4,0.7-0.8,1.4-1.3,2.1c-0.4,0.6-0.9,1.2-1.3,1.8c-0.9,1.1-2,2.2-3.1,3.1l-0.5,0.4
	c-0.8,0.6-1.6,1.2-2.4,1.7l-0.4,0.3l-0.2,0.1c-0.5,0.3-1,0.5-1.5,0.8c-0.9,0.4-1.9,0.8-2.9,1.1v-9.2c0-1,0.5-2,1.4-2.5
	c0.1,0,0.1-0.1,0.2-0.1l0.2-0.1l0,0c0.4-0.2,0.7-0.2,1.1-0.2h8.5c0.5,0,1,0.1,1.4,0.3l0,0C52.8,42.4,53.1,42.6,53.3,42.9z"/>
<rect x="45.5" y="38.7" class="st15" width="3" height="3.2"/>
<path class="st16" d="M48.5,39.7v0.9c-0.5,0.2-1.1,0.3-1.7,0.3c-0.5,0-0.9-0.1-1.4-0.2v-1L48.5,39.7z"/>
<path class="st17" d="M40.8,24.8h1c0.5,0,0.9,0.4,0.9,0.9v6.7c0,0.5-0.4,0.9-0.9,0.9h-1c-0.5,0-0.9-0.4-0.9-0.9v-6.7
	C39.9,25.2,40.3,24.8,40.8,24.8z"/>
<path class="st17" d="M52.3,23.8h1c0.5,0,0.9,0.4,0.9,0.9v7.7c0,0.5-0.4,0.9-0.9,0.9h-1c-0.5,0-0.9-0.4-0.9-0.9v-7.7
	C51.4,24.2,51.8,23.8,52.3,23.8z"/>
<ellipse transform="matrix(0.6 -0.8 0.8 0.6 -4.8057 55.5208)" class="st18" cx="53.1" cy="32.6" rx="0.8" ry="0.8"/>
<path class="st15" d="M40.9,25.5h12.2l0,0v10.7c0,2.2-1.8,4-4,4h-4.3c-2.2,0-4-1.8-4-4L40.9,25.5L40.9,25.5z"/>
<ellipse transform="matrix(0.6 -0.8 0.8 0.6 -9.7001 45.74)" class="st15" cx="40.9" cy="32.6" rx="0.8" ry="0.8"/>
<ellipse class="st17" cx="47" cy="25.7" rx="7.1" ry="2.1"/>
<ellipse class="st17" cx="42.4" cy="24.9" rx="2.2" ry="2"/>
<ellipse class="st17" cx="47.3" cy="24.3" rx="2.2" ry="2"/>
<ellipse class="st17" cx="48.8" cy="24.9" rx="2.2" ry="2"/>
<ellipse class="st17" cx="42.1" cy="24.8" rx="2.2" ry="2"/>
<ellipse class="st17" cx="51.4" cy="25.1" rx="2.2" ry="2"/>
<ellipse class="st17" cx="49.8" cy="26" rx="2.2" ry="2.1"/>
<ellipse class="st17" cx="43.6" cy="24.3" rx="2.2" ry="2"/>
<ellipse class="st17" cx="45.1" cy="24.5" rx="2.2" ry="2"/>
<ellipse class="st17" cx="46.1" cy="24" rx="2.2" ry="2"/>
<ellipse class="st17" cx="48" cy="24.2" rx="2.2" ry="2"/>
<ellipse class="st17" cx="48.6" cy="24.5" rx="2.2" ry="2"/>
<ellipse class="st17" cx="49.6" cy="24.5" rx="2.2" ry="2"/>
<ellipse class="st17" cx="50.3" cy="24.9" rx="2.2" ry="2"/>
<circle class="st17" cx="51.9" cy="24.8" r="2.1"/>
<ellipse class="st17" cx="51.9" cy="26.5" rx="2.2" ry="2.1"/>
<ellipse class="st17" cx="49.8" cy="26.3" rx="2.2" ry="2.1"/>
<ellipse class="st17" cx="49.5" cy="25.9" rx="2.2" ry="2.1"/>
<ellipse class="st17" cx="47.6" cy="26.3" rx="2.2" ry="2.1"/>
<ellipse class="st17" cx="46" cy="26.3" rx="2.2" ry="2.1"/>
<ellipse class="st17" cx="43.6" cy="26.6" rx="2.2" ry="2.1"/>
<ellipse class="st17" cx="43" cy="26.2" rx="2.2" ry="2.1"/>
<ellipse class="st17" cx="42.1" cy="25.7" rx="2.2" ry="2.9"/>
<path class="st13" d="M49.1,41.9c-0.8,1.2-2.3,1.5-3.5,0.8c-0.3-0.2-0.6-0.5-0.8-0.8H49.1z"/>
<path class="st15" d="M48.5,41.9c-0.7,0.8-2,0.9-2.8,0.2c-0.1-0.1-0.1-0.1-0.2-0.2H48.5z"/>
<path class="st13" d="M44.2,44.3L44.2,44.3c-0.5,0-1.1,0-1.6,0.2c-0.6,0.2-1.2,0.5-1.7,1c-0.4,0.4-0.8,0.8-1.1,1.2
	c-1.4,2-2,5-2.3,7.6c-0.8,0.1-1.5,0.2-2.3,0.3c0.4-5.3,1.8-8.4,3.2-10.2c0.7-0.9,1.7-1.6,2.8-2.1l0.2-0.1l0.2-0.1l0,0
	c0.5-0.2,1.1-0.3,1.6-0.3c0.2,0,0.4,0,0.5,0C44.1,42.7,44.2,43.5,44.2,44.3z"/>
<path class="st19" d="M46.7,50.5c-0.8,0.6-1.7,1.2-2.7,1.7c-0.5-1.8-1.2-3.4-2.2-4.9c-0.5-0.7-1.1-1.4-1.9-1.9
	c-0.4-0.3-0.8-0.5-1.2-0.7c-0.5-0.2-0.9-0.4-1.5-0.5c-0.4-0.1-0.7-0.1-1.1-0.1c-0.1-1,0.1-2.1,0.5-3c0.2,0,0.5,0,0.7,0
	c0.8,0,1.7,0.2,2.4,0.4l0,0c0.3,0.1,0.5,0.2,0.8,0.3l0,0h0.1l0,0c1.1,0.5,2,1.3,2.8,2.2C45,45.9,46.1,48.1,46.7,50.5z"/>
<path class="st20" d="M40.8,44.7l0.1,8.9C40,54,39,54.3,38.1,54.6c-0.7,0.2-1.4,0.4-2.2,0.4c-0.7,0.1-1.5,0.2-2.2,0.2
	c-0.6,0-1.2,0.1-1.7,0.1c-1.4,0-2.9-0.1-4.3-0.4c-0.4-0.1-0.8-0.1-1.2-0.2c-0.7-0.1-1.3-0.3-2-0.6v-9.4c0-0.1,0-0.2,0-0.3l0,0
	c0-0.4,0.1-0.8,0.2-1.2c0,0,0,0,0,0c0.2-0.5,0.5-1,1-1.4l0.1,0c0.1-0.1,0.2-0.2,0.3-0.3c0.5-0.3,1.1-0.5,1.7-0.5h9.7
	c0.5,0,1.1,0.1,1.5,0.4l0,0c0.2,0.1,0.4,0.3,0.5,0.4l0,0c0.7,0.7,1.1,1.5,1.2,2.5C40.8,44.4,40.8,44.6,40.8,44.7z"/>
<rect x="30.8" y="36.8" class="st21" width="3.9" height="4.1"/>
<path class="st22" d="M34.8,38.1v1.2c-0.7,0.3-1.4,0.4-2.1,0.4c-0.6,0-1.2-0.1-1.8-0.3v-1.3H34.8z"/>
<path class="st23" d="M25.4,18.8h1.5c0.6,0,1,0.4,1,1v8.9c0,0.6-0.4,1-1,1h-1.5c-0.6,0-1-0.4-1-1v-8.9
	C24.4,19.3,24.8,18.8,25.4,18.8z"/>
<path class="st23" d="M38.7,18.8h1.5c0.6,0,1,0.4,1,1v8.9c0,0.6-0.4,1-1,1h-1.5c-0.6,0-1-0.4-1-1v-8.9
	C37.7,19.3,38.2,18.8,38.7,18.8z"/>
<ellipse transform="matrix(0.6 -0.8 0.8 0.6 -10.4137 45.9048)" class="st21" cx="40.7" cy="33.4" rx="1" ry="1"/>
<path class="st21" d="M26.1,19.7h13.4c0.7,0,1.2,0.5,1.2,1.2V33c0,3.1-2.6,5.7-5.7,5.6c0,0,0,0,0,0h-4.4c-3.1,0-5.6-2.5-5.7-5.6
	V20.9C24.9,20.2,25.4,19.7,26.1,19.7z"/>
<ellipse transform="matrix(0.6 -0.8 0.8 0.6 -16.7248 33.2663)" class="st21" cx="24.9" cy="33.4" rx="1" ry="1"/>
<ellipse class="st23" cx="32.8" cy="20" rx="8.3" ry="2.7"/>
<path class="st24" d="M35.5,41c-0.6,1-1.6,1.6-2.8,1.5C31.7,42.6,30.6,42,30,41H35.5z"/>
<path class="st21" d="M34.8,41c-0.5,0.6-1.2,1-2,0.9c-0.8,0.1-1.5-0.3-2-0.9H34.8z"/>
<path class="st20" d="M29.1,44.1c-0.8,0-1.5,0.1-2.3,0.3l0,0l-0.4,0.1l-0.4,0.2c-0.4,0.2-0.8,0.4-1.1,0.7l-0.2,0.2
	c-0.5,0.5-1,1-1.3,1.5c-0.4,0.6-0.7,1.2-1,1.8c-0.6,1.3-1,2.6-1.3,3.9c-0.4-0.2-0.7-0.3-1-0.5l0,0c-0.6-0.3-1.1-0.6-1.6-1
	c0.4-1.6,0.9-3.1,1.6-4.5c0.7-1.5,1.7-2.8,3-3.9l0.2-0.2l0,0l0,0c0.5-0.4,0.9-0.7,1.5-0.9h0.1l0.4-0.2c0.8-0.4,1.7-0.6,2.6-0.6
	c0.2,0,0.5,0,0.7,0C29,42,29.2,43,29.1,44.1z"/>
</svg>
