<svg width="300" height="80.00000000000001" xmlns="http://www.w3.org/2000/svg" xmlns:xlink="http://www.w3.org/1999/xlink">
 <style type="text/css">.st0{fill:none;stroke:#FFFFFF;stroke-miterlimit:10;}
	.st1{clip-path:url(#SVGID_3_);}
	.st2{fill:#FFFFFF;}
	.st3{fill:#1D1D1B;}</style>
 <title>Artboard 1</title>
 <g>
  <title>background</title>
  <rect fill="none" id="canvas_background" height="82" width="302" y="-1" x="-1"/>
 </g>
 <g>
  <title>Layer 1</title>
  <path class="st0" d="m23.5,40.2c0,1.3 0.1,2.6 0.3,3.9c2.2,12.5 14.1,21 26.7,18.8c6.1,-1 11.5,-4.5 15.1,-9.6l-17.8,0l0,-11l36.2,0c0,0.5 0,1.1 -0.1,1.6c-0.3,2.6 -0.8,5.2 -1.7,7.7c-0.2,0.6 -0.4,1.1 -0.6,1.7c-7.3,19.3 -29,29 -48.3,21.7c-13.2,-5 -22.4,-17 -23.9,-31.1c-0.1,-1.3 -0.2,-2.6 -0.2,-3.9c0,-20.7 16.8,-37.4 37.4,-37.4c9.1,0 17.9,3.3 24.7,9.3l-10.1,10.3c-9.9,-8.1 -24.5,-6.6 -32.5,3.3c-2.8,3.5 -4.6,7.7 -5.1,12.1l-0.1,2.6z" id="svg_1"/>
  <g id="svg_2">
   <g id="svg_3">
    <g id="svg_4">
     <g id="svg_5">
      <g id="svg_6">
       <defs>
        <path id="SVGID_2_" d="m23.5,40.2c0,1.3 0.1,2.6 0.3,3.9c2.2,12.5 14.1,21 26.7,18.8c6.1,-1 11.5,-4.5 15.1,-9.6l-17.8,0l0,-11l36.2,0c0,0.5 0,1.1 -0.1,1.6c-0.3,2.6 -0.8,5.2 -1.7,7.7c-0.2,0.6 -0.4,1.1 -0.6,1.7c-7.3,19.3 -29,29 -48.3,21.7c-13.2,-5 -22.4,-17 -23.9,-31.1c-0.1,-1.3 -0.2,-2.6 -0.2,-3.9c0,-20.7 16.8,-37.4 37.4,-37.4c9.1,0 17.9,3.3 24.7,9.3l-10.1,10.3c-9.9,-8.1 -24.5,-6.6 -32.5,3.3c-2.8,3.5 -4.6,7.7 -5.1,12.1l-0.1,2.6z"/>
       </defs>
       <clipPath id="SVGID_3_">
        <use xlink:href="#SVGID_2_" id="svg_7"/>
       </clipPath>
       <g class="st1" id="svg_8">
        <path class="st0" d="m12,17.9c4.3,-0.5 8.5,0.7 12.7,2c1.4,0.4 2.8,0.9 4,1.7c2,1.4 3.6,3.7 5.3,5.6c4.4,5 10.3,7.8 14.6,13c1.4,2 3,3.9 4.6,5.7c1.9,1.8 4.2,3.1 6.7,4c4.7,1.9 9.6,3.1 14.3,5.1c5,1.9 9.4,5.3 12.6,9.7c2.5,3.6 3.9,7.9 4.3,12.2c0.2,1.8 0,3.6 -0.5,5.3c-1,2 -2.6,3.6 -4.7,4.4c-8,3.5 -17.2,1.7 -23.4,-4.4c-2,-1.9 -3.9,-4.3 -6.4,-5.1c-1.6,-0.4 -3.3,-0.4 -4.9,0c-11.6,1.9 -23,5.7 -34.8,5.4c-2.4,0 -4.9,-0.4 -7.2,-1.3c-1.8,-0.8 -3.5,-1.9 -5,-3.1c-2.8,-1.8 -5.3,-4.1 -7.3,-6.7c-1.4,-2.3 -2.6,-4.7 -3.5,-7.2c-2.1,-5.1 -3.5,-10.4 -4,-15.9c-0.3,-5.5 1.1,-11.4 4.5,-14.9c3.2,-3.2 6.2,-4.7 8.5,-9c1.7,-3.6 5.4,-6.1 9.6,-6.5z" id="svg_9"/>
        <path class="st0" d="m10.2,23.4c3.4,-0.2 6.9,0.4 10.1,1.6c1.1,0.3 2.2,0.8 3.2,1.4c1.6,1.3 3,2.8 4.2,4.5c3.5,4 8.2,6.3 11.6,10.4c1.2,1.6 2.4,3.1 3.7,4.5c1.5,1.4 3.3,2.5 5.3,3.2c3.8,1.5 7.7,2.5 11.4,4.1c4,1.6 7.5,4.2 10,7.7c1.9,2.9 3.1,6.3 3.4,9.7c0.2,1.4 0,2.8 -0.4,4.2c-0.7,1.6 -2.1,2.9 -3.7,3.6c-6.3,2.8 -13.7,1.4 -18.6,-3.6c-1.6,-1.4 -3.1,-3.3 -5.1,-3.9c-1.3,-0.3 -2.6,-0.3 -3.9,0c-9.2,1.5 -18.3,4.5 -27.7,4.3c-1.9,0 -3.9,-0.3 -5.7,-1c-1.4,-0.7 -2.8,-1.5 -4,-2.5c-2.2,-1.4 -4.1,-3.2 -5.8,-5.3c-1.2,-1.8 -2.1,-3.7 -2.8,-5.8c-1.7,-4.1 -2.8,-8.4 -3.2,-12.8c-0.2,-4.5 0.8,-9.2 3.6,-11.9c2.5,-2.5 4.9,-3.7 6.7,-7.2c1.5,-2.9 4.4,-4.9 7.7,-5.2z" id="svg_10"/>
        <path class="st0" d="m8.1,28.9c1.9,-0.1 3.8,0.3 5.6,1c0.6,0.2 1.2,0.5 1.8,0.8c0.9,0.8 1.7,1.7 2.4,2.7c2,2.4 4.6,3.8 6.5,6.2c0.7,0.9 1.3,1.9 2,2.8c0.9,0.8 1.9,1.5 3,1.9c2.1,0.9 4.3,1.5 6.4,2.5c2.3,1 4.2,2.6 5.6,4.7c1.1,1.8 1.8,3.8 2,5.8c0.1,0.8 0,1.7 -0.2,2.5c-0.4,0.9 -1.1,1.7 -2.1,2.1c-3.5,1.6 -7.7,0.8 -10.4,-2.1c-0.7,-1 -1.7,-1.8 -2.8,-2.4c-0.7,-0.2 -1.4,-0.2 -2.1,0c-5.3,0.8 -10.3,2.6 -15.6,2.4c-1.1,0 -2.2,-0.2 -3.2,-0.7c-0.8,-0.4 -1.5,-0.9 -2.2,-1.5c-1.3,-0.9 -2.4,-2 -3.3,-3.2c-0.6,-1.1 -1.1,-2.2 -1.5,-3.4c-1,-2.4 -1.6,-5 -1.8,-7.6c-0.3,-2.5 0.3,-5 1.8,-7.1c1.4,-1.5 2.8,-2.2 3.7,-4.2c0.8,-1.8 2.5,-3 4.4,-3.2z" id="svg_11"/>
        <path class="st0" d="m7,31.6c1.2,0 2.3,0.2 3.4,0.7c0.4,0.1 0.7,0.3 1.1,0.6c0.5,0.5 1,1.1 1.4,1.8c1.2,1.6 2.8,2.5 3.9,4.2c0.4,0.6 0.8,1.3 1.3,1.8c0.5,0.6 1.1,1 1.8,1.3c1.3,0.6 2.6,1 3.8,1.7c1.4,0.7 2.6,1.8 3.4,3.1c0.7,1.2 1.1,2.5 1.2,3.9c0.1,0.6 0,1.1 -0.1,1.7c-0.2,0.6 -0.6,1.1 -1.2,1.4c-2.2,1 -4.8,0.4 -6.2,-1.5c-0.4,-0.7 -1,-1.2 -1.7,-1.6c-0.4,-0.1 -0.9,-0.1 -1.3,0c-3.1,0.5 -6.1,1.7 -9.2,1.6c-0.7,0 -1.3,-0.1 -1.9,-0.4c-0.5,-0.3 -1,-0.6 -1.4,-1c-0.8,-0.6 -1.4,-1.3 -2,-2.2c-0.4,-0.7 -0.7,-1.5 -1,-2.3c-0.6,-1.6 -1,-3.3 -1.1,-5c-0.2,-1.6 0.2,-3.3 1.1,-4.7c0.9,-0.8 1.6,-1.7 2.2,-2.8c0.3,-1.3 1.3,-2.2 2.5,-2.3z" id="svg_12"/>
        <path class="st0" d="m92.2,32.8c9.4,5.4 16.4,14.1 19.7,24.3c0.7,1.8 0.9,3.8 0.5,5.7c-0.8,2.4 -2.8,4.3 -5.3,4.9c-2.4,0.6 -5,0.7 -7.4,0.3c-3.4,-0.1 -6.8,-1.3 -9.5,-3.4c-1.5,-1.7 -2.9,-3.5 -4.1,-5.3c-7.8,-9.1 -26,-7.1 -24.8,-22.9c1.1,-16.9 22.1,-8.7 30.9,-3.6z" id="svg_13"/>
        <path class="st0" d="m90.9,34.8c6.8,3.9 11.8,10.2 14.2,17.7c0.5,1.3 0.7,2.8 0.4,4.2c-0.6,1.8 -2,3.1 -3.8,3.6c-1.7,0.4 -3.6,0.5 -5.3,0.2c-2.5,-0.1 -4.9,-0.9 -6.9,-2.5c-1.1,-1.2 -2.1,-2.5 -3,-3.9c-5.6,-6.6 -18.9,-5.2 -18.1,-16.6c0.9,-12.3 16.1,-6.3 22.5,-2.7z" id="svg_14"/>
        <path class="st0" d="m88,39.4c3.3,1.9 5.8,4.9 7,8.5c0.3,0.6 0.3,1.3 0.2,2c-0.3,0.8 -1,1.5 -1.8,1.7c-0.9,0.2 -1.7,0.3 -2.6,0.1c-1.2,0 -2.4,-0.4 -3.4,-1.2c-0.5,-0.6 -1,-1.2 -1.4,-1.9c-2.8,-3.2 -9.2,-2.5 -8.8,-8.1c0.4,-5.7 7.7,-2.8 10.8,-1.1z" id="svg_15"/>
        <path class="st0" d="m32.7,23c-2,-1.3 -4.1,-2.5 -6.1,-3.9c-4,-2.9 -7.7,-7.7 -6.9,-12.9c0.4,-2 1.3,-3.8 2.6,-5.3c3.9,-4.3 9.8,-5.3 14.8,-2.7c1.2,0.7 2.2,1.6 3.4,2.1c4.3,2.2 9.4,0.8 14.1,-0.5c7.8,-2.2 16.1,-4 23.9,-2s15.3,8.7 16.3,17.5c0.2,1 0.1,1.9 -0.3,2.8c-0.7,1.4 -2.4,1.7 -3.8,1.8l-17.9,2c-4.3,0.2 -8.6,1.1 -12.7,2.7c-2.6,1.1 -4.9,2.9 -6.8,5.2c-1.7,2.2 -2.3,5.5 -5.4,5.2c-2.6,-0.3 -5.1,-3.6 -6.8,-5.3c-2.6,-2.4 -5.4,-4.7 -8.4,-6.7z" id="svg_16"/>
        <path class="st0" d="m36.7,20.2c-1.5,-1 -3.1,-1.9 -4.6,-3c-3.1,-2.2 -5.9,-5.8 -5.3,-9.8c0.3,-1.5 1,-2.9 2,-4c3,-3.3 7.5,-4.1 11.2,-2c0.9,0.5 1.7,1.2 2.6,1.6c3.3,1.7 7.2,0.6 10.7,-0.4c6,-1.7 12.2,-3 18.2,-1.5s11.7,6.5 12.4,13.3c0.1,0.7 0,1.5 -0.2,2.2c-0.7,0.9 -1.8,1.4 -2.9,1.4l-13.6,1.6c-3.3,0.2 -6.5,0.9 -9.7,2.1c-2,0.8 -3.8,2.2 -5.2,3.9c-1.3,1.6 -1.8,4.2 -4.1,4c-2,-0.2 -3.9,-2.7 -5.2,-4.1c-1.9,-2 -4.1,-3.8 -6.3,-5.3z" id="svg_17"/>
        <path class="st0" d="m40.1,17.9c-1,-0.7 -2.1,-1.3 -3.1,-2c-2,-1.4 -3.9,-3.8 -3.5,-6.4c0.2,-1 0.6,-1.9 1.3,-2.7c2,-2.2 5,-2.7 7.5,-1.4c0.6,0.3 1.1,0.8 1.7,1.1c2.2,1.1 4.8,0.4 7.1,-0.3c4,-1.2 8.1,-2.1 12.1,-1.1s7.8,4.3 8.3,8.8c0.1,0.5 0,1 -0.1,1.4c-0.5,0.6 -1.2,1 -1.9,0.9l-9.1,1.1c-2.2,0.1 -4.4,0.6 -6.4,1.4c-1.3,0.6 -2.5,1.5 -3.4,2.6c-0.8,1.1 -1.2,2.8 -2.7,2.7c-1.3,-0.1 -2.6,-1.8 -3.5,-2.7c-1.4,-1.2 -2.8,-2.4 -4.3,-3.4z" id="svg_18"/>
        <path class="st0" d="m44.4,15.4c-0.5,-0.3 -1,-0.6 -1.5,-0.9c-1.1,-0.6 -1.8,-1.7 -1.8,-3c0.1,-0.5 0.3,-0.9 0.7,-1.2c1,-1 2.5,-1.2 3.7,-0.6c0.3,0.2 0.6,0.3 0.9,0.5c1.2,0.4 2.4,0.3 3.6,-0.1c2,-0.6 4,-0.8 6.1,-0.5c2.1,0.4 3.7,2 4.2,4c0,0.2 0,0.5 -0.1,0.7c-0.2,0.3 -0.6,0.4 -1,0.4l-4.6,0.5c-1.1,0.1 -2.2,0.3 -3.3,0.6c-0.7,0.3 -1.3,0.7 -1.7,1.2s-0.6,1.3 -1.4,1.2c-0.8,-0.1 -1.3,-0.8 -1.7,-1.2c-0.7,-0.6 -1.4,-1.1 -2.1,-1.6z" id="svg_19"/>
       </g>
      </g>
      <g id="svg_20">
       <path id="SVGID_1_" class="st0" d="m23.5,40.2c0,1.3 0.1,2.6 0.3,3.9c2.2,12.5 14.1,21 26.7,18.8c6.1,-1 11.5,-4.5 15.1,-9.6l-17.8,0l0,-11l36.2,0c0,0.5 0,1.1 -0.1,1.6c-0.3,2.6 -0.8,5.2 -1.7,7.7c-0.2,0.6 -0.4,1.1 -0.6,1.7c-7.3,19.3 -29,29 -48.3,21.7c-13.2,-5 -22.4,-17 -23.9,-31.1c-0.1,-1.3 -0.2,-2.6 -0.2,-3.9c0,-20.7 16.8,-37.4 37.4,-37.4c9.1,0 17.9,3.3 24.7,9.3l-10.1,10.3c-9.9,-8.1 -24.5,-6.6 -32.5,3.3c-2.8,3.5 -4.6,7.7 -5.1,12.1l-0.1,2.6z"/>
      </g>
     </g>
    </g>
   </g>
  </g>
  <circle class="st3" cx="141.6" cy="-57.5" r="9" id="svg_30"/>
  <text fill="#ffffff" stroke-width="0" x="-38.507424" y="109.723328" id="svg_38" font-size="24" font-family="Sans-serif" text-anchor="middle" xml:space="preserve" transform="matrix(1.2982904153890251,0,0,1.621887204273293,238.0468869109653,-111.07720851691165) " stroke="#ffffff">Goed Bezig</text>
 </g>
</svg>