<?xml version="1.0" encoding="utf-8"?>
<!-- Generator: Adobe Illustrator 20.0.0, SVG Export Plug-In . SVG Version: 6.00 Build 0)  -->
<svg version="1.1" id="Layer_1" xmlns="http://www.w3.org/2000/svg" xmlns:xlink="http://www.w3.org/1999/xlink" x="0px" y="0px"
	 viewBox="0 0 64 64" style="enable-background:new 0 0 64 64;" xml:space="preserve">
<style type="text/css">
	.st0{fill:#F4F4F4;}
	.st1{fill:#F1EADE;}
	.st2{clip-path:url(#SVGID_2_);}
	.st3{fill:#E0A49B;}
	.st4{fill:#BC8549;}
	.st5{opacity:0.4;fill:#D1948C;enable-background:new    ;}
	.st6{fill:#E7B8B0;}
	.st7{opacity:0.6;fill:#E0A49B;enable-background:new    ;}
	.st8{fill:#D99A4D;}
	.st9{opacity:0.4;fill:#FFFFFF;enable-background:new    ;}
	.st10{fill:#C4706F;}
	.st11{fill:#D1948C;}
	.st12{fill:#A15D5D;}
	.st13{opacity:0.4;fill:#AB6161;enable-background:new    ;}
	.st14{fill:#E6AE3E;}
	.st15{fill:#E5C07F;}
	.st16{fill:#AFB9D2;}
	.st17{fill:#959CB3;}
	.st18{fill:#C7CFE2;}
	.st19{fill:#707487;}
</style>
<title>Artboard 64</title>
<circle class="st0" cx="32" cy="32" r="32"/>
<ellipse class="st1" cx="32" cy="32" rx="24.1" ry="23.3"/>
<g>
	<defs>
		<path id="SVGID_1_" d="M56.1,32c0,7.3-3.5,14.2-9.4,18.5c-0.2,0.2-0.5,0.3-0.7,0.5c-0.9,0.6-1.8,1.1-2.7,1.6L42.5,53l-0.1,0.1
			L42,53.2l-0.2,0.1c-0.2,0.1-0.4,0.2-0.6,0.2c-1.4,0.6-2.9,1-4.3,1.3c-1,0.2-2.1,0.4-3.1,0.5c-0.5,0-1.1,0.2-1.7,0.2H32
			c-1.2,0-2.3-0.1-3.5-0.3c-1.3-0.2-2.7-0.5-4-0.9c-0.3-0.1-0.5-0.2-0.8-0.3l-0.1,0l-0.2-0.1c-0.1,0-0.2-0.1-0.4-0.1l-0.7-0.3
			c-0.9-0.4-1.9-0.9-2.8-1.4L19,51.6C12.2,47.4,8,40,7.9,32C7.9,19.1,18.7,8.7,32,8.7S56.1,19.1,56.1,32z"/>
	</defs>
	<clipPath id="SVGID_2_">
		<use xlink:href="#SVGID_1_"  style="overflow:visible;"/>
	</clipPath>
	<g class="st2">
		<g id="Layer_2">
			<rect x="29.6" y="43" class="st3" width="4.5" height="3.9"/>
			<path class="st4" d="M24.9,26.8h0.3c0.9,0,1.5,0.7,1.5,1.5v13.9c0,0.9-0.7,1.5-1.5,1.5h-0.3c-0.9,0-1.5-0.7-1.5-1.5V28.3
				C23.4,27.5,24.1,26.8,24.9,26.8z"/>
			<path class="st4" d="M38.9,26.8h0.2c0.9,0,1.5,0.7,1.5,1.5v13.9c0,0.9-0.7,1.5-1.5,1.5h-0.2c-0.9,0-1.5-0.7-1.5-1.5V28.3
				C37.4,27.5,38.1,26.8,38.9,26.8z"/>
			<ellipse transform="matrix(0.6 -0.8 0.8 0.6 -12.5601 45.5399)" class="st3" cx="39.3" cy="35.3" rx="0.9" ry="0.9"/>
			<path class="st5" d="M34.1,43.1v1.4c-0.8,0.3-1.6,0.4-2.5,0.5c-0.7,0-1.4-0.1-2.1-0.3v-1.5H34.1z"/>
			<path class="st6" d="M24.5,27.2h14.7v10.3c0,3.8-3.1,6.8-6.8,6.8h-1.1c-3.8,0-6.8-3.1-6.8-6.8L24.5,27.2L24.5,27.2L24.5,27.2z"/>
			<ellipse transform="matrix(0.6 -0.8 0.8 0.6 -18.4448 33.7463)" class="st6" cx="24.5" cy="35.3" rx="0.9" ry="0.9"/>
			<ellipse class="st7" cx="31.9" cy="29.5" rx="7.3" ry="2.8"/>
			<ellipse class="st8" cx="32" cy="28.2" rx="8.6" ry="2.8"/>
			<ellipse class="st8" cx="31.9" cy="29.3" rx="7.3" ry="2.8"/>
			<path class="st9" d="M24.4,27.2c0,0,0.8-0.5,1.2-0.4c-0.2,0.5,2.8,4.5,4.7,4.9C26.2,31.3,24.5,29.6,24.4,27.2z"/>
			<path class="st3" d="M38.8,37.9L38.8,37.9L38.8,37.9z"/>
			<path class="st10" d="M39.7,50l-0.6,1.8l-0.6,2l0,0h0.3l-0.2,0.1h-0.1l0,0l0.2,0.8l0.1,0.1l-0.1,1.1l-0.2,1.8
				c-0.4,0.1-0.8,0.1-1.1,0.1l-2.2-0.8c-0.9,0-1.7,0-2.6-0.1c-0.5,0-0.9-0.4-1.4-0.4h-0.1c-1,0.1-1.9,0.2-2.9,0.2l-2,0.9
				c-0.4,0-0.7,0.1-1.1,0c0-0.4-0.1-0.8-0.2-1.1v-0.2l-0.3-1.7l0,0l-0.1-0.5l-0.1-0.5v-0.1l-0.2-1.6l-0.3-2c0-1.7,1.3-2.7,3-3.5
				c0,0,0.1,0.1,0.1,0.1s0.1,0.1,0.1,0.1l0,0l0,0c0.2,0,0.5,0,0.7,0h8.5c0,0,0-0.1,0.1-0.1s0,0,0,0s0.1,0,0.1,0
				C38.4,46.8,39.6,48.3,39.7,50z"/>
			<path class="st3" d="M36.5,46.2c0,2-2.1,3.6-4.6,3.6s-4.6-1.6-4.6-3.6H36.5z"/>
			<path class="st6" d="M43.2,63.2c0,0.2-0.2,0.4-0.4,0.4l0,0c-0.2,0-0.4-0.2-0.4-0.4v-0.8c0-0.2,0.2-0.4,0.4-0.4l0,0
				c0.2,0,0.4,0.2,0.4,0.4V63.2z"/>
			<path class="st6" d="M43.4,56.1l-2.4,0.3c0-0.1,0-0.2,0-0.2c0-0.3-0.1-0.5-0.2-0.8s-0.1-0.5-0.2-0.8c-0.2-1.1-0.6-2.1-1.1-3.1
				c-0.2-0.5-0.5-0.9-0.9-1.3l0,0c-0.5-0.4-1.1-0.7-1.8-0.7l0,0c0,0,0-0.4,0-0.5c0-0.9,0-1.8-0.1-2.7c0,0,0.1,0,0.1,0
				c0.7,0,4.4,0.1,6.1,6.9c0.1,0.6,0.3,1.2,0.4,1.8c0,0.2,0.1,0.5,0.1,0.7L43.4,56.1z"/>
			<path class="st10" d="M43.7,55.7l-0.4,0.1l-2.4,0.4l-0.7,0.1H40h-0.8c0,0-0.7-0.1-0.7-0.2l0,0c0-0.4,0-0.7,0-1.1
				c-0.1-0.5-0.1-0.9,0-1.4l0,0c0-0.1,0.3-0.2,0.3-0.3s0.2,0,0.2-0.1H39c-0.1-0.7-0.3-1.5-0.5-2.2c0-0.2-0.1-0.4-0.2-0.5
				c-0.3-0.7-1-1-1.7-1h-0.1c0-0.1-0.1-0.2-0.1-0.4l0,0c0-1,0-2.2-0.1-3h0.1c0.6,0,5.5-0.4,6.8,6.7c0.1,0.7,0.2,1.4,0.3,2.1
				C43.7,55.2,43.7,55.5,43.7,55.7z"/>
			<circle class="st3" cx="27" cy="37.2" r="1.1"/>
			<circle class="st3" cx="36.7" cy="37.3" r="1.1"/>
			<path class="st11" d="M43.2,63.2c0,0.2-0.2,0.4-0.4,0.4l0,0c-0.2,0-0.4-0.2-0.4-0.4v-0.8c0-0.2,0.2-0.4,0.4-0.4l0,0
				c0.2,0,0.4,0.2,0.4,0.4V63.2z"/>
			<path class="st6" d="M43.2,62.7v0.2c0,0.2-0.2,0.5-0.5,0.5l0,0h-0.2c-0.2,0-0.5-0.2-0.5-0.4c0,0,0,0,0,0v-0.2h0.2H43H43.2z"/>
			<path class="st12" d="M44.2,55.6c0,0.2-0.1,0.4-0.4,0.5c0,0,0,0,0,0l-0.4,0.1l-2.4,0.3h-0.4c-0.1,0-0.3,0-0.4-0.2
				c0-0.1-0.1-0.1-0.1-0.2v-0.2c0-0.2,0.1-0.4,0.4-0.5c0,0,0,0,0,0h0.3l2.4-0.3h0.4l0,0c0.2,0,0.4,0.1,0.5,0.4c0,0,0,0,0,0
				L44.2,55.6z"/>
			<path class="st6" d="M27.2,46.5c0,0,0.3-0.2,0.3,0l0,0c0,0-0.1,0.2-0.2,0.3c-0.2,0.9-0.2,1.8-0.2,2.8H27c0,0,0,0,0,0
				c-0.7,0-1.4,0.4-1.9,0.9l-0.1,0.1c-0.3,0.4-0.6,0.8-0.8,1.2c-0.5,1.1-0.9,2.3-1.2,3.6v0.1C23.1,55.7,23,56,23,56.2
				c0,0.1,0,0.2,0,0.2l-2.4-0.3v-0.3c0-0.2,0.1-0.5,0.1-0.7s0.1-0.7,0.2-1c1.5-7.3,5.1-7.7,6.1-7.7C27.1,46.4,27.2,46.5,27.2,46.5
				L27.2,46.5z"/>
			<path class="st10" d="M27.2,49.5L27.2,49.5c-0.1,0-0.2,0.1-0.2,0.1c-1.9,0.1-1.9,1.8-2.4,4.2c0,0.6-0.1,1.3-0.2,1.9
				c-0.1,0.2,0.1,0.4,0.1,0.6l0,0c0,0-0.3,0.1-0.3,0.1h-0.3h-0.2l-0.7-0.1l-2.4-0.4l-0.4-0.1c0-0.2,0-0.5,0-0.7
				c0-0.4,0.1-0.8,0.1-1.2c1-7.9,6.1-7.7,6.9-7.6h0.3v0.5C27.3,47.7,27.2,48.6,27.2,49.5z"/>
			<path class="st13" d="M30.3,57.1c0.3,0,0.6-0.1,0.8-0.1c0,0,0,0-0.1,0L30.3,57.1z"/>
			<path class="st12" d="M23.8,55.8v0.2c0,0,0,0.1,0,0.1c0,0,0,0,0,0.1c-0.1,0.1-0.2,0.2-0.4,0.2H23l-2.4-0.3L20,56
				c-0.2,0-0.4-0.2-0.4-0.5c0,0,0,0,0,0v-0.2c0-0.2,0.2-0.4,0.5-0.4c0,0,0,0,0,0l0,0h0.4l2.5,0.3h0.3c0.1,0,0.2,0.1,0.3,0.2
				C23.7,55.5,23.8,55.7,23.8,55.8z"/>
			<path class="st10" d="M23.9,56.3L23.9,56.3C24,56.3,24,56.3,23.9,56.3L23.9,56.3L23.9,56.3z"/>
			<polygon class="st1" points="24.5,52.7 27.2,58.7 20.6,58.1 			"/>
			<polygon class="st1" points="39,52.6 42.6,58.1 36,58.5 			"/>
		</g>
	</g>
</g>
<path class="st14" d="M35.2,15.7c0-1.7-1.4-3.2-3.1-3.2s-3.2,1.4-3.2,3.1c0,1.1,0.6,2.1,1.5,2.7c0.3,0.2,0.5,0.6,0.5,0.9v0.8h2.2
	v-0.8c0-0.4,0.2-0.8,0.5-1C34.6,17.8,35.1,16.8,35.2,15.7L35.2,15.7z"/>
<path class="st15" d="M34.7,15.7c0,1.5-1.2,2.7-2.7,2.6s-2.7-1.2-2.6-2.7c0-1.5,1.2-2.6,2.7-2.6C33.5,13,34.7,14.2,34.7,15.7
	L34.7,15.7z"/>
<path class="st15" d="M33,15.7c0,0.5-0.4,0.9-0.9,0.9c-0.5,0-0.9-0.4-0.9-0.9c0-0.5,0.4-0.9,0.9-0.9l0,0C32.5,14.8,33,15.2,33,15.7z
	"/>
<path class="st16" d="M32.8,20.6h-1.6l-0.3-0.5h2.2L32.8,20.6z"/>
<path class="st17" d="M30.9,20.1l0.3,0.5H32l-0.2-0.5H30.9z"/>
<path class="st18" d="M32.8,20.7h-1.6c-0.1,0-0.2,0-0.2-0.1s0-0.2,0.1-0.2c0,0,0.1,0,0.1,0h1.6c0.1,0,0.1,0.1,0.1,0.2
	C32.9,20.7,32.8,20.7,32.8,20.7z"/>
<path class="st16" d="M32.8,21.1h-1.6c-0.1,0-0.2,0-0.2-0.1s0-0.2,0.1-0.2c0,0,0.1,0,0.1,0h1.6c0.1,0,0.1,0.1,0.1,0.2
	C32.9,21,32.8,21,32.8,21.1z"/>
<path class="st18" d="M32.8,21.4h-1.6c-0.1,0-0.2,0-0.2-0.1s0-0.2,0.1-0.2c0,0,0.1,0,0.1,0h1.6c0.1,0,0.1,0.1,0.1,0.2
	C32.9,21.3,32.8,21.4,32.8,21.4z"/>
<path class="st19" d="M31.2,21.4l0.2,0.2c0.1,0.1,0.1,0.1,0.2,0.1h0.7c0.1,0,0.2,0,0.2-0.1l0.2-0.2H31.2z"/>
<path class="st16" d="M31.9,20.6c0-0.1,0.1-0.2,0.2-0.2l0,0h-0.8c-0.1,0-0.2,0-0.2,0.1s0,0.2,0.1,0.2c0,0,0.1,0,0.1,0H32
	C31.9,20.7,31.8,20.7,31.9,20.6L31.9,20.6z"/>
<path class="st16" d="M31.9,21.2c0-0.1,0.1-0.2,0.2-0.2l0,0h-0.8c-0.1,0-0.2,0-0.2,0.1s0,0.2,0.1,0.2c0,0,0.1,0,0.1,0H32
	C31.9,21.4,31.8,21.3,31.9,21.2L31.9,21.2z"/>
<path class="st17" d="M31.9,20.9c0-0.1,0.1-0.2,0.2-0.2l0,0h-0.8c-0.1,0-0.2,0-0.2,0.1s0,0.2,0.1,0.2c0,0,0.1,0,0.1,0H32
	C31.9,21,31.8,21,31.9,20.9L31.9,20.9z"/>
<path class="st15" d="M32.4,20.1L32.3,19c0-0.1-0.1-0.1-0.2-0.1h-0.3c-0.1,0-0.1,0.1-0.2,0.1l-0.1,1.1H32.4z"/>
<ellipse class="st14" cx="32" cy="10.6" rx="0.1" ry="0.7"/>
<ellipse transform="matrix(0.766 -0.6428 0.6428 0.766 -0.9915 21.0731)" class="st14" cx="28.5" cy="11.9" rx="0.1" ry="0.7"/>
<ellipse transform="matrix(0.1736 -0.9848 0.9848 0.1736 7.0727 38.7427)" class="st14" cx="26.6" cy="15.2" rx="0.1" ry="0.7"/>
<ellipse transform="matrix(0.866 -0.5 0.5 0.866 -5.7578 16.1761)" class="st14" cx="27.3" cy="18.8" rx="0.7" ry="0.1"/>
<ellipse transform="matrix(0.5 -0.866 0.866 0.5 2.1811 41.2129)" class="st14" cx="36.8" cy="18.7" rx="0.1" ry="0.7"/>
<ellipse transform="matrix(0.9848 -0.1736 0.1736 0.9848 -2.0417 6.7214)" class="st14" cx="37.4" cy="15" rx="0.7" ry="0.1"/>
<ellipse transform="matrix(0.6428 -0.766 0.766 0.6428 3.6229 31.3934)" class="st14" cx="35.5" cy="11.8" rx="0.7" ry="0.1"/>
</svg>
