<?xml version="1.0" encoding="utf-8"?>
<!-- Generator: Adobe Illustrator 20.0.0, SVG Export Plug-In . SVG Version: 6.00 Build 0)  -->
<svg version="1.1" xmlns="http://www.w3.org/2000/svg" xmlns:xlink="http://www.w3.org/1999/xlink" x="0px" y="0px"
	 viewBox="0 0 218 409" style="enable-background:new 0 0 218 409;" xml:space="preserve">
<style type="text/css">
	.st0{fill:#51A67E;}
	.st1{fill:none;}
	.st2{fill:#75C9A5;}
	.st3{fill:#D94B2B;}
	.st4{fill:#F2E0C9;}
	.st5{fill:#49706F;}
	.st6{fill:#9BD3D1;}
	.st7{opacity:0.5;fill:#FFFFFF;enable-background:new    ;}
	.st8{fill:#808080;}
	.st9{fill:#CCCCCC;}
	.st10{fill:#00A8AB;}
	.st11{fill:none;stroke:#49706F;stroke-width:3;stroke-miterlimit:10;}
	.st12{fill:#FFFFFF;}
	.st13{fill:#1D1D1B;}
	.st14{opacity:0.6;fill:#252525;}
	.st15{opacity:0.6;fill:#1D1D1B;}
	.st16{fill:#603726;}
	.st17{fill:#E0A39A;}
	.st18{fill:#6B6B6B;}
	.st19{fill:#E6B7AF;}
	.st20{fill:#314B5B;}
	.st21{fill:#818285;}
	.st22{fill:#40627C;}
	.st23{opacity:0.4;fill:#81573E;}
	.st24{fill:#6B4029;}
	.st25{opacity:0.4;fill:#E0A39A;}
	.st26{fill:#87694C;}
	.st27{fill:#E7B8B0;}
	.st28{fill:#5B776E;}
	.st29{fill:#E0A49B;}
	.st30{opacity:0.4;fill:#D1948C;enable-background:new    ;}
	.st31{fill:#252525;}
	.st32{fill:#EAE0DA;}
	.st33{opacity:0.6;fill:#E0A49B;enable-background:new    ;}
	.st34{fill:#A3805A;}
	.st35{opacity:0.4;fill:#FFFFFF;enable-background:new    ;}
	.st36{opacity:0.5;fill:#E0A49B;enable-background:new    ;}
	.st37{fill:#264F73;}
	.st38{fill:#D94E67;}
	.st39{opacity:0.5;fill:#B5455B;enable-background:new    ;}
	.st40{fill:#698C82;}
	.st41{fill:#D1948C;}
	.st42{opacity:0.28;fill:#E0A49B;}
</style>
<g id="Layer_1">
	<title>organisaties</title>
	<path class="st0" d="M24.9,109.3L24.9,109.3c1.2,0,2.2,1,2.2,2.2v5.1c0,1.2-1,2.2-2.2,2.2l0,0c-1.2,0-2.2-1-2.2-2.2v-5.1
		C22.7,110.3,23.7,109.3,24.9,109.3z"/>
	<path class="st0" d="M18.6,111.7L18.6,111.7c1.2,0,2.2,1,2.2,2.2v2.8c0,1.2-1,2.2-2.2,2.2l0,0c-1.2,0-2.2-1-2.2-2.2v-2.8
		C16.3,112.7,17.3,111.7,18.6,111.7z"/>
	<path class="st0" d="M30.9,111.7L30.9,111.7c1.2,0,2.2,1,2.2,2.2v2.8c0,1.2-1,2.2-2.2,2.2l0,0c-1.2,0-2.2-1-2.2-2.2v-2.8
		C28.6,112.7,29.6,111.7,30.9,111.7z"/>
	<line class="st1" x1="17.3" y1="112.7" x2="17.3" y2="119.2"/>
	<path class="st2" d="M17.4,112.7c0,0,0.1,0.4,0.1,1c0,0.3,0.1,0.7,0.1,1v1.2c0,0.8,0,1.6-0.1,2.2s-0.1,1-0.1,1h-0.3
		c0,0-0.1-0.4-0.1-1s-0.1-1.4-0.1-2.2v-1.2c0-0.4,0-0.7,0.1-1c0.1-0.6,0.1-1,0.1-1H17.4L17.4,112.7z"/>
	<line class="st1" x1="19.2" y1="112.7" x2="19.2" y2="119.2"/>
	<path class="st2" d="M19.3,112.7c0,0,0.1,0.4,0.1,1c0,0.3,0.1,0.7,0.1,1v1.2c0,0.8,0,1.6-0.1,2.2s-0.1,1-0.1,1H19
		c0,0-0.1-0.4-0.1-1s-0.1-1.4-0.1-2.2v-1.2c0-0.4,0-0.7,0.1-1c0.1-0.6,0.1-1,0.1-1H19.3L19.3,112.7z"/>
	<line class="st1" x1="17.9" y1="112.1" x2="17.9" y2="122"/>
	<path class="st2" d="M18,112.1c0,0,0,0.6,0.1,1.6v3.4l-0.1,3.4c0,0.9-0.1,1.6-0.1,1.6h-0.2c0,0,0-0.6-0.1-1.6l-0.1-3.4l0.1-3.4
		c0-0.9,0.1-1.6,0.1-1.6H18L18,112.1z"/>
	<line class="st1" x1="18.6" y1="113.6" x2="18.7" y2="122.4"/>
	<path class="st2" d="M18.7,113.6c0,0,0.1,0.6,0.1,1.4c0,0.4,0.1,0.9,0.1,1.4L19,118c0,1.1,0,2.2,0,3s-0.1,1.4-0.1,1.4h-0.4
		c0,0-0.1-0.6-0.1-1.4s-0.1-1.9-0.1-3v-1.6c0-0.5,0-1,0-1.4c0-0.8,0.1-1.4,0.1-1.4H18.7L18.7,113.6z"/>
	<line class="st1" x1="23.3" y1="111.4" x2="23.3" y2="117.9"/>
	<path class="st2" d="M23.4,111.4c0,0,0.1,0.4,0.1,1c0,0.3,0.1,0.7,0.1,1v1.2c0,0.8,0,1.6-0.1,2.2s-0.1,1-0.1,1h-0.3
		c0,0-0.1-0.4-0.1-1s-0.1-1.4-0.1-2.2v-1.2c0-0.4,0-0.7,0.1-1c0.1-0.6,0.1-1,0.1-1H23.4L23.4,111.4z"/>
	<line class="st1" x1="24.2" y1="110.8" x2="24.2" y2="120.8"/>
	<path class="st2" d="M24.3,110.8c0,0,0,0.6,0.1,1.6l0.1,3.4l-0.1,3.4c0,0.9-0.1,1.6-0.1,1.6h-0.2c0,0,0-0.6-0.1-1.6v-3.4v-3.4
		c0-0.9,0.1-1.6,0.1-1.6H24.3L24.3,110.8z"/>
	<line class="st1" x1="25.6" y1="111.4" x2="25.6" y2="117.9"/>
	<path class="st2" d="M25.7,111.4c0,0,0.1,0.4,0.1,1c0,0.3,0.1,0.7,0.1,1v1.2c0,0.8,0,1.6-0.1,2.2s-0.1,1-0.1,1h-0.3
		c0,0-0.1-0.4-0.1-1s-0.1-1.4-0.1-2.2v-1.2c0-0.4,0-0.7,0.1-1c0.1-0.6,0.1-1,0.1-1H25.7L25.7,111.4z"/>
	<line class="st1" x1="26.5" y1="110.8" x2="26.5" y2="120.8"/>
	<path class="st2" d="M26.6,110.8c0,0,0,0.6,0.1,1.6l0.1,3.4l-0.1,3.4c0,0.9-0.1,1.6-0.1,1.6h-0.2c0,0,0-0.6-0.1-1.6l-0.1-3.4
		l0.1-3.4c0-0.9,0.1-1.6,0.1-1.6H26.6z"/>
	<line class="st1" x1="25" y1="112.3" x2="25" y2="122.3"/>
	<path class="st2" d="M25.2,112.3c0,0,0.1,0.6,0.1,1.6c0,0.5,0.1,1,0.1,1.6v1.8c0,1.2,0,2.5-0.1,3.4s-0.1,1.6-0.1,1.6h-0.3
		c0,0-0.1-0.6-0.1-1.6s-0.1-2.2-0.1-3.4v-1.8c0-0.6,0-1.1,0.1-1.6c0.1-0.9,0.1-1.6,0.1-1.6H25.2L25.2,112.3z"/>
	<line class="st1" x1="29.6" y1="112.9" x2="29.6" y2="119.4"/>
	<path class="st2" d="M29.7,112.9c0,0,0.1,0.4,0.1,1c0,0.3,0.1,0.7,0.1,1v1.2c0,0.8,0,1.6-0.1,2.2s-0.1,1-0.1,1h-0.3
		c0,0-0.1-0.4-0.1-1s-0.1-1.4-0.1-2.2v-1.2c0-0.4,0-0.7,0.1-1c0.1-0.6,0.1-1,0.1-1H29.7z"/>
	<line class="st1" x1="32" y1="112.9" x2="32" y2="119.4"/>
	<path class="st2" d="M32.2,112.9c0,0,0.1,0.4,0.1,1c0,0.3,0.1,0.7,0.1,1v1.2c0,0.8,0,1.6-0.1,2.2s-0.1,1-0.1,1h-0.3
		c0,0-0.1-0.4-0.1-1s-0.1-1.4-0.1-2.2v-1.2c0-0.4,0-0.7,0.1-1c0.1-0.6,0.1-1,0.1-1H32.2L32.2,112.9z"/>
	<line class="st1" x1="30.4" y1="112.3" x2="30.4" y2="122.3"/>
	<path class="st2" d="M30.5,112.3c0,0,0,0.6,0.1,1.6l0.1,3.4l-0.1,3.4c0,0.9-0.1,1.6-0.1,1.6h-0.2c0,0,0-0.6-0.1-1.6l-0.1-3.4
		l0.1-3.4c0-0.9,0.1-1.6,0.1-1.6H30.5z"/>
	<line class="st1" x1="31.2" y1="112.3" x2="31.2" y2="122.3"/>
	<path class="st2" d="M31.4,112.3c0,0,0.1,0.6,0.1,1.6c0,0.5,0.1,1,0.1,1.6v1.8c0,1.2,0,2.5-0.1,3.4s-0.1,1.6-0.1,1.6h-0.3
		c0,0-0.1-0.6-0.1-1.5s-0.1-2.2-0.1-3.4v-1.8c0-0.6,0-1.1,0.1-1.6c0.1-0.9,0.1-1.6,0.1-1.6L31.4,112.3L31.4,112.3z"/>
	<rect x="11.8" y="116.3" class="st3" width="26.2" height="6.3"/>
	<rect y="26.2" class="st4" width="218" height="382.8"/>
	<rect x="6" y="40" class="st5" width="207.2" height="87.1"/>
	<rect x="8.5" y="43.7" class="st6" width="202.3" height="79.7"/>
	<path class="st7" d="M202.1,46.8L202.1,46.8c1.5,0,2.6,1.2,2.6,2.6v68.5c0,1.4-1.2,2.6-2.6,2.6l0,0c-1.4,0-2.6-1.2-2.6-2.6V49.4
		C199.5,47.9,200.7,46.8,202.1,46.8z"/>
	<rect x="6" y="127.1" class="st8" width="207.2" height="4.4"/>
	<rect x="6" y="127.1" class="st9" width="207.2" height="3.5"/>
	<rect x="6" y="137" class="st5" width="207.2" height="87.1"/>
	<rect x="8.5" y="140.7" class="st6" width="202.3" height="79.7"/>
	<path class="st7" d="M202.1,143.7L202.1,143.7c1.5,0,2.6,1.2,2.6,2.6v68.4c0,1.4-1.2,2.6-2.6,2.6l0,0c-1.4,0-2.6-1.2-2.6-2.6v-68.4
		C199.5,144.9,200.7,143.7,202.1,143.7z"/>
	<rect x="6" y="224.1" class="st8" width="207.2" height="4.4"/>
	<rect x="6" y="224.1" class="st9" width="207.2" height="3.5"/>
	<rect x="6" y="232" class="st5" width="207.2" height="87.1"/>
	<rect x="8.5" y="235.6" class="st6" width="202.3" height="79.7"/>
	<path class="st7" d="M202.1,238.7L202.1,238.7c1.5,0,2.6,1.2,2.6,2.6v68.4c0,1.4-1.2,2.6-2.6,2.6l0,0c-1.4,0-2.6-1.2-2.6-2.6v-68.4
		C199.5,239.8,200.7,238.7,202.1,238.7z"/>
	<rect x="6" y="319" class="st8" width="207.2" height="4.4"/>
	<rect x="6" y="319" class="st9" width="207.2" height="3.5"/>
	<rect y="18.1" class="st10" width="218" height="16.2"/>
	<rect x="67" y="329" class="st5" width="84" height="79.9"/>
	<rect x="68.8" y="331.6" class="st6" width="80.3" height="77.3"/>
	<line class="st11" x1="109" y1="329" x2="109" y2="408.9"/>
	<path class="st3" d="M115.2,362.9L115.2,362.9c0.7,0,1.3,0.6,1.3,1.3V375c0,0.7-0.6,1.3-1.3,1.3l0,0c-0.7,0-1.3-0.6-1.3-1.3v-10.8
		C113.9,363.5,114.5,362.9,115.2,362.9z"/>
	<path class="st7" d="M142.5,340.4L142.5,340.4c1.3,0,2.3,1,2.3,2.3v56.8c0,1.3-1,2.3-2.3,2.3l0,0c-1.3,0-2.3-1-2.3-2.3v-56.8
		C140.3,341.4,141.3,340.4,142.5,340.4z"/>
	<path class="st7" d="M101.7,340.4L101.7,340.4c1.3,0,2.3,1,2.3,2.3v56.8c0,1.3-1,2.3-2.3,2.3l0,0c-1.3,0-2.3-1-2.3-2.3v-56.8
		C99.5,341.4,100.5,340.4,101.7,340.4z"/>
	<path class="st3" d="M103,362.9L103,362.9c0.7,0,1.3,0.6,1.3,1.3V375c0,0.7-0.6,1.3-1.3,1.3l0,0c-0.7,0-1.3-0.6-1.3-1.3v-10.8
		C101.7,363.5,102.3,362.9,103,362.9z"/>
	<rect x="6" y="329" class="st5" width="55.2" height="79.9"/>
	<rect x="8.1" y="331.6" class="st6" width="51.1" height="77.3"/>
	<rect x="158" y="329" class="st5" width="55.2" height="79.9"/>
	<rect x="160.1" y="331.6" class="st6" width="51.1" height="77.3"/>
	<path class="st7" d="M49.5,339.4h0.7c1.5,0,2.7,1.2,2.7,2.7v56c0,1.5-1.2,2.7-2.7,2.7h-0.7c-1.5,0-2.7-1.2-2.7-2.7v-56
		C46.8,340.6,48,339.4,49.5,339.4z"/>
	<path class="st7" d="M201.8,339.4h0.7c1.5,0,2.7,1.2,2.7,2.7v56c0,1.5-1.2,2.7-2.7,2.7h-0.7c-1.5,0-2.7-1.2-2.7-2.7v-56
		C199.1,340.6,200.3,339.4,201.8,339.4z"/>
	<rect x="60.9" class="st10" width="96.3" height="29.9"/>
	<rect x="63.5" y="2.4" class="st12" width="91.3" height="25"/>
	<path class="st13" d="M76.5,14.9v4.3c-1.3,0.9-2.9,1.4-4.5,1.5c-3.1,0.2-5.9-2.2-6-5.4c-0.2-3.1,2.2-5.9,5.4-6c0.3,0,0.5,0,0.8,0
		c1.6,0,3.2,0.6,4.5,1.6l-1.4,1.8c-0.8-0.8-1.9-1.2-3.1-1.3c-1.9,0-3.5,1.6-3.5,3.5s1.6,3.5,3.5,3.5c0.8,0,1.5-0.2,2.2-0.6v-2.9
		L76.5,14.9L76.5,14.9z"/>
	<path class="st13" d="M78.7,20.5V9.8h2.4v10.7H78.7z"/>
	<path class="st13" d="M86.5,20.5L82.3,9.8h2.6l2.9,8l2.9-8h2.5L89,20.5H86.5z"/>
	<path class="st13" d="M96.8,11.8v2.3h5.2v2h-5.2v2.4h5.9v2h-8.3V9.8h8.1v2H96.8z"/>
	<path class="st13" d="M112.9,19.5c-0.6,0.7-1.6,1.1-2.6,1.1c-1.4,0.2-2.6-0.9-2.8-2.2c0-0.1,0-0.2,0-0.3c0-1.5,1.1-2.5,3.1-2.5h2.3
		v-0.2c0-0.9-0.6-1.4-1.7-1.4c-0.9,0-1.7,0.3-2.4,0.7l-0.8-1.6c1.1-0.6,2.4-0.9,3.7-0.9c2.2,0,3.5,1.1,3.5,2.9v5.4h-2.3L112.9,19.5
		L112.9,19.5z M112.9,17.7V17h-1.8c-0.9,0-1.3,0.3-1.3,0.9s0.6,1.1,1.2,1h0.1C111.8,19,112.6,18.5,112.9,17.7L112.9,17.7z"/>
	<path class="st13" d="M125.5,9.8c3.3,0,5.6,2.2,5.6,5.3s-2.3,5.3-5.7,5.3H121V9.8H125.5L125.5,9.8z M123.4,18.5h2.2
		c1.7,0,3.1-1.3,3.1-3c0-0.1,0-0.2,0-0.2c0.1-1.7-1.2-3.2-3-3.3c-0.1,0-0.2,0-0.2,0h-2.1C123.4,11.9,123.4,18.5,123.4,18.5z"/>
	<path class="st13" d="M134.5,18.4l-0.8,2.1h-2.5l4.6-10.7h2.5l4.6,10.7h-2.6l-0.8-2.1H134.5L134.5,18.4z M137,12.4l-1.7,4.1h3.4
		L137,12.4z"/>
	<path class="st13" d="M148.3,20.5h-2.4v-3.4L142,9.8h2.4l2.7,4.8l2.7-4.8h2.4l-3.9,7.3V20.5z"/>
	<line class="st1" x1="120.4" y1="274.2" x2="120.2" y2="274.2"/>
	<polyline class="st1" points="109.2,274.2 109.4,274.2 109.6,274.2 	"/>
	<line class="st1" x1="142.9" y1="281.8" x2="142.7" y2="281.8"/>
	<polyline class="st1" points="134.3,281.8 134.5,281.8 134.7,281.8 	"/>
	<path class="st14" d="M52.6,195.5h-0.2c0,0,0,0,0,0.1v2.4c0,0.1-0.1,0.2-0.2,0.2h-0.6c-0.4,0-0.8-0.4-0.8-0.8v-0.5l0,0
		c-0.1,0.1-0.3,0.2-0.4,0.1l-0.1-0.1c-0.1-0.1-0.2-0.3-0.1-0.4l0.5-0.8c0-0.1,0.1-0.1,0.1-0.1v-0.1h-0.3c0,0,0.7-8.3-2.3-12.4v11.2
		c0,0.5-0.2,0.9-0.6,1.1h0.3v3.5c0,0.6-0.5,1.2-1.2,1.2h-1.2v18.3h0.2v0.6h1.6c0,0,1,0,1.8,1.3h0v0.3h-6.1v-1.6h0.2v-0.6h0.2V200H40
		v18.3h0.2v0.6h0.2v1.6h-6.1v-0.3h0c0.7-1.3,1.7-1.3,1.8-1.3h1.6v-0.6h0.2V200h-1.4c-0.6,0-1.2-0.5-1.2-1.2v-3.5h0.3
		c-0.4-0.3-0.6-0.7-0.6-1.1V183c-2.8,4.1-2.2,12.5-2.2,12.5h-0.4v0.1c0.1,0,0.1,0.1,0.1,0.1l0.5,0.8c0.1,0.1,0,0.3-0.1,0.4l-0.1,0.1
		c-0.1,0.1-0.3,0-0.4-0.1l0,0v0.5c0,0.4-0.4,0.8-0.8,0.8h-0.6c-0.1,0-0.2-0.1-0.2-0.2v-2.4c0,0,0,0,0-0.1h-0.2
		c-0.4-12.1,3.2-15.6,5.6-16.5c0.4-0.2,0.8-0.4,1.3-0.4h2.6v-1.8c-1.9-0.5-3.3-1.9-3.9-3.7c-0.2-0.5-0.3-1.1-0.3-1.8v-0.6
		c-0.1,0-0.3,0-0.4-0.1c-0.3-0.2-0.4-0.7-0.1-1c0.1-0.2,0.4-0.3,0.6-0.3v-1.2c0-2.5,2-4.6,4.5-4.6c0-0.2,0-0.4,0-0.6
		c0-1.6,0.6-3,1.3-3c0.7,0,1.3,1.3,1.3,3c0,0.2,0,0.4,0,0.7c2.4,0.2,4.2,2.2,4.2,4.6v1.2c0.2,0,0.3,0,0.4,0.1c0.3,0.2,0.4,0.7,0.1,1
		c-0.1,0.2-0.4,0.3-0.6,0.3v0.6c0,0.6-0.1,1.2-0.3,1.8c-0.6,1.8-2.1,3.2-3.9,3.7v1.8h2.4c0.5,0,0.9,0.1,1.3,0.3
		C49.3,179.8,53,183.3,52.6,195.5z"/>
	<path class="st15" d="M195.7,388.6h-0.2c0,0,0,0,0,0v2.2c0,0.1-0.1,0.2-0.2,0.2h-0.5c-0.4,0-0.7-0.3-0.7-0.7v-0.5l0,0
		c-0.1,0.1-0.3,0.2-0.4,0.1l-0.1,0c-0.1-0.1-0.2-0.3-0.1-0.4l0.4-0.8c0-0.1,0.1-0.1,0.1-0.1v-0.1h-0.3c0,0,0.7-8.9-2.8-12.3v0.1
		c0.9,1.5,1.6,3.4,2.1,5.5c0.4,1.6,0.1,3.4-0.6,4.3v2.2c0.3,0.5,0.4,1.3,0,1.9c-0.8,1.4-1.9,2.5-3.3,3.2v13.5h0.2v0.5h1.5
		c0,0,1,0,1.6,1.2h0v0.3h-5.6v-1.5h0.2v-0.5h0.2v-12.8c-0.5,0.1-1,0.1-1.5,0.1c-0.6,0-1.2-0.1-1.7-0.2v12.8h0.2v0.5h0.2v1.5h-5.6
		v-0.3h0c0.7-1.2,1.6-1.2,1.6-1.2h1.5v-0.5h0.2v-13.6c-1.3-0.7-2.4-1.8-3.1-3.1c-0.3-0.5-0.3-1-0.2-1.5h0v-2.4
		c-0.8-0.8-1.2-2.7-0.8-4.5c0.5-2.2,1.3-4.1,2.2-5.6v-0.1c-3.4,3.3-2.8,12.4-2.8,12.4h-0.3v0.1c0.1,0,0.1,0.1,0.1,0.1l0.4,0.8
		c0.1,0.1,0,0.3-0.1,0.4l-0.1,0c-0.1,0.1-0.3,0-0.4-0.1l0,0v0.5c0,0.4-0.3,0.7-0.7,0.7h-0.5c-0.1,0-0.2-0.1-0.2-0.2v-2.2
		c0,0,0,0,0,0h-0.2c-0.5-14.1,4.9-15.6,6.8-15.7c0,0,0.1,0,0.1,0c0,0,0.1,0,0.1,0h1.1c0.3-0.1,0.6-0.2,0.8-0.3v-1.4
		c-1.7-0.4-3.1-1.7-3.7-3.4c-0.2-0.5-0.3-1.1-0.3-1.6v-0.6c-0.1,0-0.3,0-0.4-0.1c-0.2-0.1-0.3-0.3-0.3-0.5c-0.1-0.2-0.2-0.4-0.2-0.6
		v-6.2c0-0.5,0.4-1,0.9-1.1c1.1-0.7,3-1.2,5.1-1.2c3.3,0,6,1.1,6,2.4c0.1,0.1,0.1,0.3,0.1,0.4v5.7c0,0.5-0.4,1-0.8,1.1v0.7
		c0,0.6-0.1,1.1-0.3,1.6c-0.5,1.7-1.9,3-3.7,3.4v1.5c0.2,0.1,0.4,0.1,0.6,0.2h1.2C190.6,372.9,196.2,374.1,195.7,388.6z"/>
	<path class="st15" d="M180.6,103.7h-0.2c0,0,0,0,0,0v2.2c0,0.1-0.1,0.2-0.2,0.2h-0.5c-0.4,0-0.7-0.3-0.7-0.7V105l0,0
		c-0.1,0.1-0.2,0.2-0.4,0.1l-0.1,0c-0.1-0.1-0.2-0.2-0.1-0.4l0.4-0.7c0-0.1,0.1-0.1,0.1-0.1v-0.1h-0.3c0,0,0.7-8.6-2.7-11.9v0.1
		c0.9,1.5,1.6,3.3,2.1,5.4c0.4,1.5,0.1,3.3-0.6,4.1v2.1c0.3,0.5,0.4,1.2,0,1.8c-0.7,1.3-1.9,2.4-3.2,3.1v13h0.2v0.5h1.4
		c0,0,0.9,0,1.6,1.1h0v0.3H172V122h0.2v-0.5h0.2v-12.4c-0.5,0.1-1,0.1-1.5,0.1c-0.6,0-1.1-0.1-1.6-0.2v12.4h0.2v0.5h0.2v1.4h-5.4
		v-0.3h0c0.7-1.1,1.6-1.1,1.6-1.1h1.4v-0.5h0.2v-13.1c-1.3-0.7-2.3-1.7-3-3c-0.3-0.5-0.3-1-0.2-1.4h0v-2.3c-0.8-0.7-1.2-2.7-0.8-4.4
		c0.5-2.1,1.2-4,2.1-5.5v-0.1c-3.3,3.2-2.7,12-2.7,12h-0.3v0.1c0.1,0,0.1,0.1,0.1,0.1l0.4,0.7c0.1,0.1,0,0.3-0.1,0.4l-0.1,0
		c-0.1,0.1-0.3,0-0.4-0.1l0,0v0.5c0,0.4-0.3,0.7-0.7,0.7h-0.5c-0.1,0-0.2-0.1-0.2-0.2v-2.2c0,0,0,0,0,0H161
		c-0.5-13.7,4.7-15.1,6.6-15.2c0,0,0.1,0,0.1,0c0,0,0.1,0,0.1,0h1.1c0.3-0.1,0.5-0.2,0.8-0.3v-1.3c-1.7-0.4-3-1.7-3.5-3.3
		c-0.2-0.5-0.3-1-0.3-1.6v-0.5c-0.1,0-0.3,0-0.4-0.1c-0.2-0.1-0.2-0.3-0.3-0.5c-0.1-0.2-0.2-0.4-0.2-0.6v-6c0-0.5,0.4-1,0.9-1.1
		c1-0.7,2.9-1.1,5-1.1c3.2,0,5.8,1,5.8,2.3c0.1,0.1,0.1,0.3,0.1,0.4v5.5c0,0.5-0.4,1-0.8,1.1V82c0,0.5-0.1,1.1-0.3,1.6
		c-0.5,1.6-1.9,2.9-3.5,3.3v1.4c0.2,0.1,0.4,0.1,0.6,0.2h1.2C175.5,88.6,181,89.7,180.6,103.7z"/>
	<line class="st1" x1="167.3" y1="262.9" x2="167.3" y2="262.9"/>
	<polyline class="st1" points="156.1,262.9 156.2,262.9 156.3,262.9 	"/>
	<path class="st14" d="M41.7,102h-0.1v2.5c0,0.1-0.1,0.2-0.2,0.2H41c-0.4,0-0.7-0.3-0.7-0.7v-0.6l0,0c-0.1,0.1-0.2,0.2-0.3,0.1
		l-0.1-0.1c-0.1-0.1-0.2-0.3-0.1-0.4l0.4-0.8c0-0.1,0.1-0.1,0.1-0.1V102H40c0,0,0.5-8.2-1.8-12.2v11c0,0.5-0.2,0.9-0.5,1.1H38v3.5
		c0,0.6-0.5,1-1,1h-0.8v15h0.2v0.6h1.2c0,0,0.8,0,1.4,1.3h0v0.3h-4.8V122h0.2v-0.6h0.2v-15h-2.7v15H32v0.6h0.2v1.6h-4.8v-0.3h0
		c0.6-1.3,1.4-1.3,1.4-1.3H30v-0.6h0.2v-15h-1c-0.6,0-1-0.5-1-1v-3.5h0.2c-0.3-0.2-0.5-0.7-0.5-1.1V89.6c-2.2,4-1.8,12.3-1.8,12.3
		h-0.3v0.1c0,0,0.1,0.1,0.1,0.1l0.4,0.8c0.1,0.1,0,0.3-0.1,0.4l-0.1,0.1c-0.1,0.1-0.3,0-0.3-0.1l0,0v0.6c0,0.4-0.3,0.7-0.7,0.7h-0.3
		c-0.1,0-0.2-0.1-0.2-0.2V102h-0.1C24.2,90.1,27,86.6,29,85.7c0.6-0.3,1.1-0.4,1.5-0.4h1.6v-1.8c-1.7-0.4-3-1.9-3.3-3.7
		c0-0.2,0-0.4,0-0.6v-1.7c-0.1,0-0.2,0-0.3-0.1c-0.1-0.1-0.2-0.2-0.2-0.4c-0.1-0.2-0.2-0.4-0.2-0.6v-5.7c0,0,0-0.1,0-0.1v0
		c0,0,0-0.1,0-0.1c0,0,0-0.1,0-0.1c0-0.1,0-0.3,0-0.4v0c0-0.1,0-0.2,0-0.3c0-0.8,0.4-1.4,1-1.7c0.2-0.1,0.4-0.2,0.6-0.2
		c0.1,0,0.1,0,0.1,0c0.3-0.2,0.6-0.4,1-0.4c0.3,0,0.5,0.1,0.7,0.2c0,0,0.1,0,0.1,0c0.3-0.3,0.6-0.4,1-0.4c0.3,0,0.5,0.1,0.8,0.2
		c0.2-0.1,0.4-0.1,0.6-0.1c0.3,0,0.6,0.1,0.9,0.3c0.1,0,0.2,0,0.3,0c0.4,0,0.7,0.2,1,0.4c0.2-0.1,0.4-0.2,0.7-0.2
		c0.8,0,1.4,0.7,1.5,1.6v0c0.1,0.1,0.1,0.3,0.1,0.4v6.6c0,0.2-0.1,0.4-0.2,0.6c0,0.1,0,0.1-0.1,0.2c-0.1,0.2-0.3,0.3-0.5,0.3v1.7
		c0,0.2,0,0.4,0,0.6c-0.2,1.8-1.6,3.2-3.3,3.7v1.8h1.5c0.3,0,0.8,0.1,1.4,0.3c0,0,0,0,0,0C39.1,86.5,42,89.9,41.7,102z"/>
	<path class="st14" d="M184.1,293.7h-0.1v2.5c0,0.1-0.1,0.2-0.2,0.2h-0.3c-0.4,0-0.7-0.3-0.7-0.7V295l0,0c-0.1,0.1-0.2,0.2-0.3,0.1
		l-0.1-0.1c-0.1-0.1-0.2-0.3-0.1-0.4l0.4-0.8c0-0.1,0.1-0.1,0.1-0.1v-0.1h-0.3c0,0,0.5-8.2-1.8-12.2v11c0,0.5-0.2,0.9-0.5,1.1h0.2
		v3.5c0,0.6-0.5,1-1,1h-0.8v15h0.2v0.6h1.2c0,0,0.8,0,1.4,1.3h0v0.3h-4.8v-1.6h0.2v-0.6h0.2v-15h-2.7v15h0.2v0.6h0.2v1.6h-4.8V315h0
		c0.6-1.3,1.4-1.3,1.4-1.3h1.2v-0.6h0.2v-15h-1c-0.6,0-1-0.5-1-1v-3.5h0.2c-0.3-0.2-0.5-0.7-0.5-1.1v-11.1c-2.2,4-1.8,12.3-1.8,12.3
		h-0.3v0.1c0,0,0.1,0.1,0.1,0.1l0.4,0.8c0.1,0.1,0,0.3-0.1,0.4l-0.1,0.1c-0.1,0.1-0.3,0-0.3-0.1l0,0v0.6c0,0.4-0.3,0.7-0.7,0.7h-0.3
		c-0.1,0-0.2-0.1-0.2-0.2v-2.5H167c-0.3-11.9,2.5-15.3,4.4-16.3c0.6-0.3,1.1-0.4,1.5-0.4h1.6v-1.8c-1.7-0.4-3-1.9-3.3-3.7
		c0-0.2,0-0.4,0-0.6v-1.7c-0.1,0-0.2,0-0.3-0.1c-0.1-0.1-0.2-0.2-0.2-0.4c-0.1-0.2-0.2-0.4-0.2-0.6v-5.7c0,0,0-0.1,0-0.1v0
		c0,0,0-0.1,0-0.1c0,0,0-0.1,0-0.1c0-0.1,0-0.3,0-0.4v0c0-0.1,0-0.2,0-0.3c0-0.8,0.4-1.4,1-1.7c0.2-0.1,0.4-0.2,0.6-0.2
		c0.1,0,0.1,0,0.1,0c0.3-0.2,0.6-0.4,1-0.4c0.3,0,0.5,0.1,0.7,0.2c0,0,0.1,0,0.1,0c0.3-0.3,0.6-0.4,1-0.4c0.3,0,0.5,0.1,0.8,0.2
		c0.2-0.1,0.4-0.1,0.6-0.1c0.3,0,0.6,0.1,0.9,0.3c0.1,0,0.2,0,0.3,0c0.4,0,0.7,0.2,1,0.4c0.2-0.1,0.4-0.2,0.7-0.2
		c0.8,0,1.4,0.7,1.5,1.6v0c0.1,0.1,0.1,0.3,0.1,0.4v6.6c0,0.2-0.1,0.4-0.2,0.6c0,0.1,0,0.1-0.1,0.2c-0.1,0.2-0.3,0.3-0.5,0.3v1.7
		c0,0.2,0,0.4,0,0.6c-0.2,1.8-1.6,3.2-3.3,3.7v1.8h1.5c0.3,0,0.8,0.1,1.4,0.3c0,0,0,0,0,0C181.5,278.2,184.4,281.6,184.1,293.7z"/>
	<path class="st14" d="M76.4,197.1l0,3.1c0,0.1-0.1,0.3-0.3,0.3l-0.5,0c-0.5,0-1-0.4-1-1l0-1l-0.1,0.1c0,0.1-0.2,0.1-0.2,0.1
		l-0.1-0.1c-0.1-0.1-0.1-0.2-0.1-0.3l0.3-0.7c0-0.1,0.1-0.1,0.1-0.1l0-0.4h0c0,0,0.3-7.4-1.1-12.4c-0.6-1.5-1.1-2.7-1.7-3.5
		l-0.3,2.4c0.2,0.3,0.3,0.7,0.3,1.2v0c0,0.7-0.3,1.3-0.7,1.6l-0.1,0.6c-0.4,2.5-0.3,5.1,0.2,7.6l0.4,2.4c0.1,0.5-0.1,0.9-0.4,1.2
		v6.4c0,1-0.8,1.8-1.7,1.8h-0.1v10.9l-0.2,2.7l0,0.8c0,0.3-0.2,0.5-0.4,0.5h-0.7c-0.2,0-0.4-0.2-0.4-0.5l-0.2-3.5l0-10.5h0v-0.4
		h-2.7v14.9h-0.5v-1.7c-0.4,1.7-1,1.8-3,1.7c-0.6,0-1.2,0-2.1,0c-0.2-1.7,2.1-1.5,3.5-1.9v-13h-0.5c-0.9,0-1.7-0.8-1.7-1.8v-6.2l0,0
		v-0.2c-0.3-0.2-0.5-0.7-0.4-1.2l0.3-1.7c0.5-2.9,0.6-5.9,0.3-8.9c-0.5-0.3-0.8-1-0.8-1.7v0c0-0.4,0.1-0.9,0.3-1.2c0,0,0,0,0-0.1
		c0,0,0,0,0,0l-0.3-2.3c0,0,0,0,0,0c0,0,0,0,0,0c-0.7,0.8-1.2,2-1.7,3.5c-1.4,5-1.1,12.4-1.1,12.4h0l0,0.4c0,0,0.1,0,0.1,0.1
		l0.3,0.7c0,0.1,0,0.2-0.1,0.3l-0.1,0.1c-0.1,0.1-0.2,0-0.2-0.1l-0.1-0.1l0,1c0,0.5-0.4,1-1,1l-0.5,0c-0.1,0-0.3-0.1-0.3-0.3l0-3.1
		c0-0.1,0-0.1,0-0.2c-0.2-9.2,1.1-14.1,2.6-16.6c0,0,0,0,0,0c0,0,0-0.1,0.1-0.1c0.1-0.2,0.3-0.4,0.4-0.6c-0.8-0.7-1.3-1.8-1.3-2.9
		v-13.1c0-0.9,0.3-1.8,0.9-2.5c0.1-0.4,0.5-0.7,1.1-1c0.4-0.2,0.9-0.4,1.4-0.5c1.4-0.4,3.3-0.6,5.4-0.6c2,0,3.8,0.2,5.2,0.6
		c2.2,0,3.9,1.8,3.9,4v13.1c0,1.3-0.7,2.5-1.7,3.3c1.6,2.4,3.1,7.3,2.9,17c0,0,0,0,0,0C76.4,197,76.4,197.1,76.4,197.1z"/>
	<path class="st14" d="M50.1,281.5l0,3.2c0,0.1-0.1,0.3-0.2,0.3l-0.4,0c-0.4,0-0.8-0.5-0.8-1l0-1.1l0,0.1c0,0.1-0.1,0.1-0.2,0.1
		l-0.1-0.1c-0.1-0.1-0.1-0.2-0.1-0.3l0.3-0.7c0-0.1,0.1-0.1,0.1-0.1l0-0.4h0c0,0,0.3-7.7-0.9-13c0,0,0,0,0,0
		c-0.4-1.5-0.8-2.7-1.4-3.5c0.2,1.6,0.5,2.4,0.5,2.4c0,0,0,0.1,0,0.1c0.2,0.4,0.3,0.9,0.3,1.4v0c0,1.3-0.6,2.3-1.4,2.3l-0.2-0.1
		c-0.3,2.6-0.2,5.2,0.2,7.7l0.4,2.5c0.1,0.5-0.1,1-0.3,1.2v6.6c0,0.3,0,0.5-0.1,0.7H46v1.5l-1.5,0.1v18.1l-0.1,3.7l0,1.1
		c0,0.4-0.2,0.7-0.3,0.7h-0.6c-0.2,0-0.3-0.3-0.3-0.7l0-1.1l-0.1-3.7l0-14.8h0v-2.4h0v-0.8c-0.7,0.1-1.5,0.1-2.2,0v23.5h-0.4v-2.4
		c-0.3,2.4-0.8,2.5-2.4,2.4c-0.5,0-1-0.1-1.7-0.1c-0.2-2.4,1.7-2.1,2.8-2.7v-21l-1.8-0.2V290h0.1c-0.1-0.2-0.1-0.5-0.1-0.7v-6.6
		c-0.3-0.3-0.4-0.7-0.3-1.2l0.3-1.8c0.4-2.8,0.5-5.6,0.3-8.3l0,0c-0.8,0-1.4-1-1.4-2.3v0c0-0.5,0.1-1.1,0.3-1.4c0,0,0-0.1,0-0.1
		c0,0,0.3-0.7,0.5-2.1l-0.1-0.5c0,0,0,0,0,0c0,0,0,0,0,0c-0.5,0.8-0.9,2.1-1.4,3.6c-1.2,5.2-0.9,13-0.9,13h0l0,0.4
		c0,0,0.1,0,0.1,0.1l0.3,0.7c0,0.1,0,0.2-0.1,0.3l-0.1,0.1c-0.1,0.1-0.2,0-0.2-0.1l0-0.1l0,1.1c0,0.6-0.3,1-0.8,1l-0.4,0
		c-0.1,0-0.2-0.1-0.2-0.3l0-3.2c0-0.1,0-0.1,0-0.2c0,0,0,0,0,0c-0.1-6.1,0.3-10.3,0.9-13.3c0.1-0.3,0.1-0.7,0.2-1c0,0,0,0,0,0
		c0.4-1.7,0.9-2.9,1.4-3.8c-0.7-0.7-1.1-1.6-1.1-2.6v-14.7c0-0.8,0.3-1.6,0.7-2.2c0.5-1.2,3.1-2.1,6.3-2.1c1.7,0,3.2,0.2,4.3,0.7
		c1.7,0.3,3,1.8,3,3.6v14.7c0,1.2-0.6,2.2-1.4,2.9c1.3,2.5,2.5,7.6,2.3,17.8c0,0,0,0,0,0C50.1,281.4,50.1,281.4,50.1,281.5z"/>
	<path class="st14" d="M159.6,200.5l0,2.5c0,0.1-0.1,0.2-0.2,0.2l-0.4,0c-0.4,0-0.8-0.4-0.8-0.8l0-0.8l0,0.1c0,0.1-0.1,0.1-0.2,0.1
		l-0.1-0.1c-0.1,0-0.1-0.2-0.1-0.2l0.3-0.6c0,0,0.1-0.1,0.1-0.1l0-0.3h0c0,0,0.3-6.1-0.9-10.3c-0.4-1-0.7-1.9-1.2-2.5
		c0.2,1.1,0.5,1.6,0.5,1.6c0,0,0,0,0,0.1c0.2,0.3,0.3,0.8,0.3,1.2v0c0,0.3-0.1,0.6-0.2,0.9c0.7,1.3,1.1,2.9,1.1,4.6
		c0,1.9-0.5,3.6-1.3,5.1v6c0,1-0.8,1.8-1.8,1.8h-0.9v8l-0.1,2.2l0,0.7c0,0.2-0.2,0.4-0.3,0.4h-0.6c-0.2,0-0.3-0.2-0.3-0.4l0-0.7
		l-0.1-2.2l0-8h-1.7v11.3H150V219c-0.4,1.4-0.9,1.5-2.9,1.4c-0.6,0-1.2,0-2,0c-0.2-1.4,2.1-1.2,3.5-1.6v-9.7h-1.3
		c-1,0-1.8-0.8-1.8-1.8V201c-0.7-1.4-1.2-3-1.2-4.8c0-1.6,0.4-3.1,1-4.4c-0.2-0.3-0.3-0.7-0.3-1.1v0c0-0.5,0.1-0.9,0.3-1.2
		c0,0,0,0,0-0.1c0,0,0.3-0.6,0.5-1.6c-0.4,0.6-0.7,1.5-1.1,2.5c-1.2,4.1-0.9,10.3-0.9,10.3h0l0,0.3c0,0,0.1,0,0.1,0.1l0.3,0.6
		c0,0.1,0,0.2-0.1,0.2l-0.1,0.1c-0.1,0-0.2,0-0.2-0.1l0-0.1l0,0.8c0,0.4-0.4,0.8-0.8,0.8l-0.4,0c-0.1,0-0.2-0.1-0.2-0.2l0-2.5
		c0,0,0-0.1,0-0.1c-0.1-4.8,0.3-8.1,0.9-10.5c0.2-0.8,0.5-1.6,0.7-2.2c0,0,0,0,0,0c0.3-0.7,0.6-1.2,0.9-1.6
		c-0.7-0.6-1.1-1.5-1.1-2.4v-10.8c0-0.8,0.3-1.5,0.7-2c0.1-0.3,0.4-0.6,0.9-0.8c0.3-0.2,0.7-0.3,1.1-0.4c1.2-0.3,2.7-0.5,4.4-0.5
		c1.6,0,3.1,0.2,4.3,0.5c1.8,0,3.2,1.5,3.2,3.3v10.8c0,1.1-0.6,2.1-1.4,2.7c0.5,0.7,0.9,1.6,1.3,2.8c0.7,2.4,1.2,5.9,1.1,11.2
		c0,0,0,0,0,0C159.6,200.4,159.6,200.5,159.6,200.5z"/>
</g>
<g id="Layer_2">
	<path class="st16" d="M137.7,348.6L137.7,348.6c-0.9,0-1.6-0.7-1.6-1.6v-8c0-0.9,0.7-1.6,1.6-1.6h0c0.9,0,1.6,0.7,1.6,1.6v8
		C139.3,347.9,138.6,348.6,137.7,348.6z"/>
	<path class="st17" d="M138.8,347c0.4,0.3,0.5,0.9,0.2,1.3c-0.3,0.4-0.9,0.5-1.3,0.2c-0.4-0.3-0.5-0.9-0.2-1.3
		C137.8,346.8,138.4,346.7,138.8,347z"/>
	
		<rect x="133.2" y="381.5" transform="matrix(-1 -4.567026e-11 4.567026e-11 -1 269.0391 788.4741)" class="st18" width="2.6" height="25.4"/>
	<g>
		<path class="st17" d="M141.9,382.7l-0.1-0.1c-0.2-0.1-0.3-0.3-0.1-0.5l0.6-1.1c0.1-0.2,0.3-0.3,0.5-0.1l0.1,0.1
			c0.2,0.1,0.3,0.3,0.1,0.5l-0.6,1.1C142.4,382.7,142.1,382.8,141.9,382.7z"/>
		<path class="st19" d="M143.5,384.2h0.7c0.1,0,0.3-0.1,0.3-0.3v-3.1c0-0.4-0.3-0.7-0.7-0.7h-0.9c-0.2,0-0.4,0.2-0.4,0.4v2.6
			C142.5,383.7,142.9,384.2,143.5,384.2z"/>
	</g>
	<path class="st20" d="M134.6,358.9c0,0,10.9-2,10.1,21.8h-2.6c0,0,1.5-18.5-8-19C134.1,359.6,134.6,358.9,134.6,358.9z"/>
	
		<rect x="133" y="406.2" transform="matrix(-1 -4.553881e-11 4.553881e-11 -1 269.0391 813.1685)" class="st18" width="3.1" height="0.7"/>
	<rect x="126.2" y="381.5" class="st21" width="2.6" height="25.4"/>
	<path class="st22" d="M138.2,362.3v16.8c0,1-0.7,1.8-1.6,1.8h-11.6c-0.9,0-1.6-0.8-1.6-1.8v-16.8c0-1.9,1.3-3.4,3-3.4h8.7
		C136.9,358.9,138.2,360.4,138.2,362.3z"/>
	<path class="st16" d="M124.4,348.6L124.4,348.6c-0.9,0-1.6-0.7-1.6-1.6v-8.7c0-0.9,0.7-1.6,1.6-1.6l0,0c0.9,0,1.6,0.7,1.6,1.6v8.7
		C126,347.9,125.2,348.6,124.4,348.6z"/>
	<path class="st19" d="M131,356.8L131,356.8c-3.9,0-7.1-3.2-7.1-7.1v-10.3h14.2v10.3C138.2,353.6,135,356.8,131,356.8z"/>
	<ellipse class="st13" cx="126.6" cy="346" rx="0.6" ry="0.7"/>
	<ellipse class="st13" cx="135" cy="346" rx="0.6" ry="0.7"/>
	<path class="st17" d="M132.3,350.4h-2.9c-0.2,0-0.4-0.2-0.4-0.4v-0.6c0-0.2,0.2-0.4,0.4-0.4h2.9c0.2,0,0.4,0.2,0.4,0.4v0.6
		C132.7,350.3,132.5,350.4,132.3,350.4z"/>
	<path class="st12" d="M133.1,352.8c0,0.1,0,0.2,0,0.3c-0.2,0.6-1.1,1-2.2,1c-1.1,0-2-0.4-2.2-1c0-0.1,0-0.2,0-0.3c0,0,0-0.1,0-0.1
		h4.5C133.1,352.7,133.1,352.8,133.1,352.8z"/>
	<path class="st19" d="M124.5,347c0.4,0.3,0.5,0.9,0.2,1.3c-0.3,0.4-0.9,0.5-1.3,0.2c-0.4-0.3-0.5-0.9-0.2-1.3
		C123.5,346.8,124.1,346.7,124.5,347z"/>
	<ellipse class="st16" cx="131" cy="338.5" rx="8.2" ry="3.4"/>
	<path class="st13" d="M131.3,384.1h-0.6c-0.2,0-0.4-0.2-0.4-0.4v-2.3c0-0.2,0.2-0.4,0.4-0.4h0.6c0.2,0,0.4,0.2,0.4,0.4v2.3
		C131.7,384,131.5,384.1,131.3,384.1z"/>
	<g>
		<path class="st13" d="M124,382.7h-1v-2h3v0C126,381.8,125.1,382.7,124,382.7z"/>
		<path class="st13" d="M137.8,382.6h1v-2h-3v0C135.8,381.7,136.7,382.6,137.8,382.6z"/>
	</g>
	<g>
		<rect x="123" y="380.6" class="st13" width="15.9" height="1"/>
		<ellipse class="st13" cx="123.6" cy="381.1" rx="0.2" ry="0.2"/>
		<ellipse class="st13" cx="124.5" cy="381.1" rx="0.2" ry="0.2"/>
		<ellipse class="st13" cx="125.3" cy="381.1" rx="0.2" ry="0.2"/>
		<ellipse class="st13" cx="126.2" cy="381.1" rx="0.2" ry="0.2"/>
		<ellipse class="st13" cx="127.1" cy="381.1" rx="0.2" ry="0.2"/>
		<ellipse class="st13" cx="127.9" cy="381.1" rx="0.2" ry="0.2"/>
		<ellipse class="st13" cx="128.8" cy="381.1" rx="0.2" ry="0.2"/>
		<ellipse class="st13" cx="129.6" cy="381.1" rx="0.2" ry="0.2"/>
		<ellipse class="st13" cx="130.5" cy="381.1" rx="0.2" ry="0.2"/>
		<ellipse class="st13" cx="131.4" cy="381.1" rx="0.2" ry="0.2"/>
		<ellipse class="st13" cx="132.2" cy="381.1" rx="0.2" ry="0.2"/>
		<ellipse class="st13" cx="133.1" cy="381.1" rx="0.2" ry="0.2"/>
		<ellipse class="st13" cx="133.9" cy="381.1" rx="0.2" ry="0.2"/>
		<ellipse class="st13" cx="134.8" cy="381.1" rx="0.2" ry="0.2"/>
		<ellipse class="st13" cx="135.7" cy="381.1" rx="0.2" ry="0.2"/>
		<ellipse class="st13" cx="136.5" cy="381.1" rx="0.2" ry="0.2"/>
		<ellipse class="st13" cx="137.4" cy="381.1" rx="0.2" ry="0.2"/>
		<ellipse class="st13" cx="138.2" cy="381.1" rx="0.2" ry="0.2"/>
	</g>
	<rect x="126" y="406.2" class="st18" width="3.1" height="0.7"/>
	<path class="st13" d="M129.4,406.9v2.1h-7.7v-0.4c0.9-1.7,2.2-1.7,2.3-1.7H129.4z"/>
	<rect x="121.7" y="408.6" class="st12" width="7.7" height="0.4"/>
	<path class="st13" d="M124.5,407v0.8c0,0.1-0.1,0.2-0.2,0.2s-0.2-0.1-0.2-0.2V407c0,0,0,0,0,0L124.5,407
		C124.5,406.9,124.5,407,124.5,407z"/>
	<g>
		<path class="st13" d="M125.4,407v1c0,0.1-0.1,0.3-0.2,0.3s-0.2-0.1-0.2-0.3v-1c0,0,0,0,0,0L125.4,407
			C125.4,406.9,125.4,407,125.4,407z"/>
	</g>
	<path class="st19" d="M129.1,406.9c-0.3,0.3-0.9,0.5-1.6,0.5c-0.7,0-1.3-0.2-1.5-0.5H129.1z"/>
	<path class="st13" d="M132.7,406.9v2.1h7.7v-0.4c-0.9-1.7-2.2-1.7-2.3-1.7H132.7z"/>
	
		<rect x="132.7" y="408.6" transform="matrix(-1 -4.601576e-11 4.601576e-11 -1 273.0267 817.5845)" class="st12" width="7.7" height="0.4"/>
	<path class="st13" d="M137.5,407v0.8c0,0.1,0.1,0.2,0.2,0.2s0.2-0.1,0.2-0.2V407c0,0,0,0,0,0L137.5,407
		C137.5,406.9,137.5,407,137.5,407z"/>
	<g>
		<path class="st13" d="M136.6,407v1c0,0.1,0.1,0.3,0.2,0.3s0.2-0.1,0.2-0.3v-1c0,0,0,0,0,0L136.6,407
			C136.6,406.9,136.6,407,136.6,407z"/>
	</g>
	<path class="st19" d="M132.9,406.9c0.3,0.3,0.9,0.5,1.6,0.5c0.7,0,1.3-0.2,1.5-0.5H132.9z"/>
	<g>
		<path class="st17" d="M119.9,382.7l0.1-0.1c0.2-0.1,0.2-0.3,0.1-0.5l-0.6-1.1c-0.1-0.2-0.3-0.3-0.5-0.1l-0.1,0.1
			c-0.2,0.1-0.2,0.3-0.1,0.5l0.6,1.1C119.4,382.7,119.7,382.8,119.9,382.7z"/>
		<path class="st19" d="M118.3,384.2h-0.7c-0.1,0-0.3-0.1-0.3-0.3v-3.1c0-0.4,0.3-0.7,0.7-0.7h0.9c0.2,0,0.4,0.2,0.4,0.4v2.6
			C119.3,383.7,118.9,384.2,118.3,384.2z"/>
	</g>
	<path class="st22" d="M127.2,358.9c0,0-10.9-2-10.1,21.8h2.6c0,0-1.3-19.2,8-19C127.7,359.6,127.2,358.9,127.2,358.9z"/>
	<rect x="133.5" y="344.6" class="st23" width="3.4" height="0.6"/>
	<rect x="124.9" y="344.6" class="st23" width="3.4" height="0.6"/>
	<rect x="133.5" y="344" class="st24" width="3.4" height="0.8"/>
	<rect x="124.9" y="344" class="st24" width="3.4" height="0.8"/>
	<path class="st21" d="M124.1,379.2h13.7c1.9,0,3.1,2.1,2.2,3.9c-1.8,3.3-5.2,5.5-9.1,5.5c-3.9,0-7.3-2.2-9.1-5.5
		C121,381.3,122.2,379.2,124.1,379.2z"/>
	<path class="st22" d="M139,378.2h-16.3c-1.7,0-2.9-3.7-2.1-6.8c0.7-3.1,1.7-5.8,3-7.9c1.2-2.1,2.6-3.6,4.1-4.5h6.3
		c1.6,0.9,3,2.5,4.2,4.7c1.2,2.1,2.2,4.8,2.9,7.8C141.9,374.5,140.7,378.2,139,378.2z"/>
	<rect x="121.7" y="377.8" class="st10" width="18.3" height="3.3"/>
	<path class="st20" d="M133.5,358.9c-0.4,0.8-1.3,1.4-2.5,1.4c-1.1,0-2.1-0.6-2.5-1.4H133.5z"/>
	<path class="st19" d="M132.8,358.9c-0.3,0.5-0.9,0.8-1.8,0.8c-0.8,0-1.5-0.4-1.8-0.8H132.8z"/>
	<path class="st25" d="M132.8,356.3v1.1c-0.6,0.2-1.3,0.4-1.9,0.4c-0.5,0-1.1-0.1-1.6-0.2v-1.2H132.8z"/>
	<rect x="129.3" y="355.1" class="st19" width="3.5" height="3.8"/>
	<g id="Layer_2_1_">
		<path class="st26" d="M28.7,341.5h1.1c4,0,7.2,0.9,7.2,2v17.9c0,1.1-3.3,2-7.2,2h-1.1c-4,0-7.2-0.9-7.2-2v-17.9
			C21.5,342.4,24.8,341.5,28.7,341.5z"/>
		<path class="st27" d="M33.3,359.7c0,0,8.1-1.9,7.6,21.3H39c0,0,0.9-18.8-5.6-18.5C33.4,360.4,33.3,359.7,33.3,359.7z"/>
		<path class="st28" d="M33.3,362.7c2.5,0,3.5,2.1,4.7,5.3l1.8-1.7c-2.2-7.6-6.6-6.6-6.6-6.6S33.3,360.5,33.3,362.7z"/>
		<rect x="27.1" y="356.8" class="st29" width="4" height="3.5"/>
		<path class="st26" d="M35.4,342.7h0.2c0.8,0,1.4,0.6,1.4,1.4v12.1c0,0.7-0.6,1.4-1.4,1.4h-0.2c-0.8,0-1.4-0.6-1.4-1.4v-12.1
			C34,343.3,34.7,342.7,35.4,342.7z"/>
		<ellipse transform="matrix(0.6 -0.8 0.8 0.6 -265.8013 168.1446)" class="st29" cx="35.2" cy="349.9" rx="0.8" ry="0.8"/>
		<path class="st30" d="M31.1,356.8v1.2c-0.7,0.3-1.4,0.4-2.2,0.4c-0.6,0-1.2-0.1-1.8-0.3v-1.4H31.1z"/>
		<path class="st27" d="M23.1,342.6h12.2l0,0v9.2c0,3.4-2.5,6.1-5.6,6.1h-0.9c-3.1,0-5.6-2.7-5.6-6.1L23.1,342.6L23.1,342.6z"/>
		<circle class="st31" cx="25.4" cy="349.3" r="0.6"/>
		<circle class="st31" cx="32.9" cy="349.3" r="0.6"/>
		<path class="st29" d="M28.5,351.1h1c0.2,0,0.4,0.2,0.4,0.5v0.1c0,0.3-0.2,0.5-0.4,0.5h-1c-0.2,0-0.4-0.2-0.4-0.5v-0.1
			C28.1,351.3,28.3,351.1,28.5,351.1z"/>
		<path class="st32" d="M31.5,354.7c0,0.1,0,0.2-0.1,0.3c-0.3,0.9-1.7,1.5-3.2,1.3c-1-0.2-1.8-0.6-2-1.3c0-0.1-0.1-0.2-0.1-0.3
			c0-0.1,0-0.1,0-0.2h5.3C31.5,354.6,31.5,354.6,31.5,354.7z"/>
		<ellipse transform="matrix(0.6 -0.8 0.8 0.6 -270.6293 158.5342)" class="st27" cx="23.2" cy="349.9" rx="0.8" ry="0.8"/>
		<ellipse class="st33" cx="29.2" cy="344.7" rx="6.4" ry="2.5"/>
		<ellipse class="st34" cx="29.3" cy="343.6" rx="7.8" ry="2.5"/>
		<ellipse class="st34" cx="29.1" cy="344.5" rx="6.5" ry="2.5"/>
		<path class="st35" d="M22.5,342.6c0,0,0.7-0.5,1.1-0.3c-0.2,0.5,2.5,4,4.2,4.4C24,346.3,22.5,344.8,22.5,342.6z"/>
		<path class="st29" d="M35.3,352.2L35.3,352.2L35.3,352.2C35.3,352.3,35.3,352.2,35.3,352.2z"/>
		<polygon class="st27" points="32.8,407.2 30.9,407.2 30.7,404.1 30.7,388.2 33,388.2 33,404.1 		"/>
		<rect x="30.7" y="389.6" class="st36" width="2.3" height="2"/>
		<path class="st37" d="M30.7,404.1c1.3,4.6,2.3,0,2.3,0l-0.2,4.1c0,0.3-0.2,0.6-0.5,0.6h-0.9c-0.2,0-0.4-0.3-0.5-0.6L30.7,404.1"/>
		<polygon class="st27" points="27.5,405.9 25.2,406.7 25.2,388.2 27.5,388.2 		"/>
		<rect x="25.2" y="389.6" class="st36" width="2.3" height="2"/>
		<path class="st37" d="M27.5,404.1v4.7H27v-2c-0.4,2-1.1,2.1-3.5,2c-0.7,0-1.5-0.1-2.4-0.1c-0.3-2.5,4.1-1.4,5.1-2.8
			C26.9,404.7,27.5,404.1,27.5,404.1z"/>
		<path class="st38" d="M35.2,380.4v8.7c0,1.1-0.9,2.1-2,2.1h-8.5c-1.1,0-2-1-2-2.1v-8.7L35.2,380.4L35.2,380.4z"/>
		<path class="st39" d="M35.2,380.1v1.7l-4.3,0.3c-1.3,0.1-2.6,0.1-3.9,0l-4.3-0.3v-1.7H35.2z"/>
		<path class="st40" d="M34.7,381.6H23.4c-0.6,0-1.2-0.6-1.1-1.2c0-0.1,0-0.2,0-0.2l0.4-1.8c0.7-3.3,0.7-6.6,0.2-9.9l-0.9-5.7
			c0-1.7,1.6-3.1,3.5-3.1h7c1.9,0,3.5,1.4,3.5,3.1l-1.1,6.8c-0.4,2.7-0.3,5.4,0.2,8l0.5,2.5c0.2,0.6-0.2,1.3-0.9,1.4
			C34.9,381.6,34.8,381.6,34.7,381.6z"/>
		<path class="st29" d="M33.2,359.7c0,1.8-1.8,3.2-4.1,3.2s-4.1-1.4-4.1-3.2H33.2z"/>
		<path class="st40" d="M36.1,366.8L36.1,366.8c0,1.2-0.8,2.3-1.7,2.3l-2.1-0.7c-0.9-0.3-1.9-0.5-2.9-0.5c-0.2,0-0.4,0-0.5,0
			c-1,0-2,0.2-2.9,0.5l-2.1,0.7c-1,0-1.7-1-1.7-2.3l0,0c0-0.5,0.1-1,0.4-1.4c0,0,0-0.1,0-0.1c0,0,0.6-1,0.7-3
			c0.1-1.9,1.5-2.1,1.5-2.1l1.1,4.3h6.6l1.1-4.3c0,0,1.4,0.2,1.5,2.1c0.1,1.9,0.7,3,0.7,3c0,0,0,0.1,0,0.1
			C36,365.8,36.1,366.3,36.1,366.8z"/>
		<line class="st1" x1="41.7" y1="363.3" x2="39.7" y2="365.3"/>
		<path class="st28" d="M37.4,367.4l2.6-1.3c0.2-0.1,0.4,0,0.5,0.2l0.1,0.2c0.1,0.2,0,0.4-0.2,0.5l-2.6,1.3c-0.2,0.1-0.4,0-0.5-0.2
			l-0.1-0.2C37.2,367.8,37.2,367.5,37.4,367.4z"/>
		<path class="st41" d="M38.5,382.8l0.1,0c0.1,0,0.2-0.1,0.3-0.2l0.3-0.8c0-0.1,0-0.2-0.1-0.2c0,0,0,0,0,0l-0.1,0
			c-0.1,0-0.2,0.1-0.3,0.2l-0.3,0.8C38.4,382.6,38.4,382.7,38.5,382.8C38.5,382.8,38.5,382.8,38.5,382.8z"/>
		<path class="st27" d="M39.7,380.6l0.7,0c0.3,0,0.5,0.2,0.5,0.5l0,1.8c0,0.7-0.6,1.2-1.2,1.2l-0.5,0c-0.2,0-0.3-0.2-0.3-0.3
			l0.1-2.3C38.9,380.9,39.3,380.6,39.7,380.6C39.7,380.6,39.7,380.6,39.7,380.6z"/>
		<polygon class="st33" points="26.8,347.7 23.8,348 23.8,348.4 26.8,348.4 		"/>
		<polygon class="st33" points="31.4,347.7 34.5,348 34.5,348.4 31.4,348.4 		"/>
		<polygon class="st34" points="26.8,347.6 23.8,347.8 23.8,348.2 26.8,348.2 		"/>
		<polygon class="st34" points="31.4,347.6 34.5,347.8 34.5,348.2 31.4,348.2 		"/>
		<ellipse class="st42" cx="24.8" cy="351.8" rx="1" ry="1.2"/>
		<ellipse class="st42" cx="33.5" cy="351.9" rx="1" ry="1.2"/>
		<path class="st27" d="M24.2,363.5c0,0-8.1,1.9-7.6-21.3h1.9c0,0-0.9,18.8,5.6,18.5C24.1,362.7,24.2,363.5,24.2,363.5z"/>
		<path class="st40" d="M24.2,360.5c-2.5,0-3.5-2.1-4.7-5.3l-1.8,1.7c2.2,7.6,6.6,6.6,6.6,6.6S24.2,362.7,24.2,360.5z"/>
		<path class="st28" d="M20.1,355.7l-2.6,1.3c-0.2,0.1-0.4,0-0.5-0.2l-0.1-0.2c-0.1-0.2,0-0.4,0.2-0.5l2.6-1.3
			c0.2-0.1,0.4,0,0.5,0.2l0.1,0.2C20.4,355.4,20.3,355.6,20.1,355.7z"/>
		<path class="st41" d="M19,340.6l-0.1,0c-0.1,0-0.2,0-0.3,0.2l-0.3,0.8c-0.1,0.1,0,0.2,0.1,0.3c0,0,0,0,0,0l0.1,0
			c0.1,0,0.2,0,0.3-0.2l0.3-0.8C19.2,340.8,19.1,340.7,19,340.6C19,340.7,19,340.7,19,340.6z"/>
		<path class="st27" d="M17.7,342.8l-0.6,0c-0.3,0-0.5-0.2-0.5-0.5l0.1-1.7c0.1-0.7,0.6-1.2,1.3-1.1l0,0l0.4,0
			c0.2,0,0.3,0.2,0.3,0.3l0,0l-0.2,2.3C18.5,342.5,18.1,342.8,17.7,342.8z"/>
	</g>
</g>
</svg>
